<svg version="1.2" xmlns="http://www.w3.org/2000/svg" viewBox="0 0 350 200" width="350" height="200">
	<title>Novo Projeto</title>
	<style>
		.s0 { fill: #e1e1e1 } 
		.s1 { fill: #84bdff } 
		.s2 { fill: #192e36 } 
		.s3 { fill: #000000 } 
		.s4 { fill: #365965 } 
		.s5 { fill: #ffffff } 
		.s6 { fill: #fafafa } 
		.s7 { opacity: .2;fill: #000000 } 
	</style>
	<g id="Layer">
		<g id="Layer">
			<g id="Layer">
				<g id="Layer">
					<path id="Layer" class="s0" d="m217.3 55.3c3.2-1.1 4.5-3.1 5.5-5.5 1.1-2.6 1.2-4.7 0.7-7.4-0.1-1.2-0.8-3.7-2.5-5.8-1.9-2.3-2.8-3.3-5.1-5.3-5.3-4.6-14.2-5.8-20.2-2.3-0.1 0.1-0.3 0.2-0.4 0.3-7 4.5-4.3 12.2-4.3 12.2 0 0-1-0.3-1.6-0.4-2.8-0.4-9.4-1.5-15.4 5.4-3.6 4.2-4.4 9.5-2.7 15.9 1.7 6.4 2.8 7.4 2.8 7.4 0 0-10.8 5.4-3.4 10.2-5.6-0.7-6.6 4.9-6.6 4.9 0 0-0.8 2.7 1.4 5.5 0.9 1.2 2.2 1.6 3.5 1.6 1.5-0.1 2.9-0.7 3.1-0.8-0.1 0.1-0.9 0.8-1.3 2-0.3 1.2-0.2 2.9 1.2 5.1 3 4.7 10.3 3.8 10.6 3.7-0.1 0.1-1.1 0.9-1.9 2-0.9 1-1.6 2.4-1.4 3.6 0.5 2.2 4.8 7.1 5.4 7.8q0.1 0.1 0.1 0.1c0 0-6.2 5.7-3.6 10.2l4.3 8.7c0 0 5.8-7.2 10.5-17.8 0 0 2.6-2.6 4.7-5.8 2.1-3.2 3.9-7.1 2.6-10-1.2-2.6-3.6-4.1-5.7-4.9-2.4-0.9-4.6-0.9-4.6-0.9 0 0 1.5-2.6-0.6-3.9-0.8-0.5-1.4-0.7-1.9-0.8 1-0.1 2.5-0.3 4.4-0.6 5.1-0.9 12.4-3.2 14.7-9.1 3.6-9.3-2.6-16.5-2.6-16.5 0 0 3.2-0.2 4.2-3.1 1-3-0.5-4.4-0.5-4.4l-0.2-0.3c2.2 0 4.4-0.2 6.8-1z"/>
				</g>
				<g id="Layer">
					<path id="Layer" class="s0" d="m165.1 66.7c-0.6-1.7-2.6-2.9-4.3-2.2 1.8-1.9 1.7-5.3-0.2-7-1.9-1.8-5.3-1.6-7 0.4l-1-0.6c-2.9-2.2-7.8-1-9.4 2.3-1.5 3.4 0.8 7.9 4.4 8.7-2.4 1.2-3.4 4.7-2.1 7.3 1.3 2.5 4.4 3.8 7.1 3.2 2.8-0.5 5.1-2.6 6.1-5.3 1.9 0 3.7-0.6 5.1-1.8 1.3-1.3 1.9-3.3 1.3-5z"/>
				</g>
				<g id="Layer">
					<path id="Layer" class="s0" d="m226.7 96.2c-0.8-1-2.1-1.4-3.3-1.8-1.2-0.4-2.4-0.7-3.7-0.5-1.2 0.2-2.4 1.2-2.4 2.4-1.8-0.6-3.7 1.9-3.8 3.3 0 1.5 1 2.9 2.5 3.3-0.9 1.3-0.1 3.4 1.5 3.8 1.6 0.4 3.3-1.1 3.2-2.7 1.3 0.9 3.1 0.7 4.4-0.2 1.3-0.9 2.1-2.4 2.4-3.9 0.1-1.3 0-2.7-0.8-3.7z"/>
				</g>
			</g>
			<g id="Layer">
				<path id="Layer" fill-rule="evenodd" class="s1" d="m196.5 106.1c0 0 0.1 0.1 0 0.2q0 0.1-0.1 0.1-0.2 0-0.2-0.2c0 0 0-0.1 0-0.1 0.1 0 0.1 0 0.2 0q0-0.1 0.1 0z"/>
				<path id="Layer" fill-rule="evenodd" class="s1" d="m184.1 108.5c0.1 0 0.1 0.1 0.1 0.2q-0.1 0.1-0.2 0.1-0.1 0-0.2-0.1v-0.1c0 0 0 0 0.1 0 0-0.1 0-0.1 0.1-0.1q0.1 0 0.1 0z"/>
				<path id="Layer" fill-rule="evenodd" class="s1" d="m195.4 109.2c0-0.4-0.5-0.7-0.8-0.5-0.2 0.4 0.1 0.9 0.4 1 0.2-0.1 0.3-0.4 0.3-0.6z"/>
				<path id="Layer" fill-rule="evenodd" class="s1" d="m168.7 100c0.2 0.3-0.1 0.8-0.4 0.8-0.3 0-0.6-0.4-0.5-0.7 0.2-0.3 0.7-0.4 0.8-0.1z"/>
				<path id="Layer" fill-rule="evenodd" class="s1" d="m196.9 92.2q-0.4 0.2-0.8 0.4c0.2 0.3 0.5 0.3 0.8 0.3 0.2-0.3 0.1-0.6-0.1-0.8z"/>
				<path id="Layer" fill-rule="evenodd" class="s1" d="m215.8 114.1c-0.1-0.2-0.3-0.4-0.5-0.3-0.2 0-0.3 0.3-0.1 0.5 0.2 0 0.4-0.1 0.5-0.3z"/>
				<path id="Layer" fill-rule="evenodd" class="s1" d="m205.8 97.5c0 0.3-0.3 0.5-0.6 0.4-0.3-0.1-0.4-0.5-0.2-0.7 0.3-0.2 0.7-0.2 0.8 0.1z"/>
				<path id="Layer" fill-rule="evenodd" class="s1" d="m195.2 104c0 0.3-0.3 0.6-0.6 0.5-0.3-0.2-0.4-0.5-0.2-0.8 0.2-0.2 0.6-0.1 0.7 0.2z"/>
				<path id="Layer" fill-rule="evenodd" class="s1" d="m209.1 109.5c0-0.2-0.3-0.4-0.5-0.3-0.2 0.1-0.2 0.4 0 0.6 0.2 0.1 0.5-0.1 0.4-0.3z"/>
				<path id="Layer" fill-rule="evenodd" class="s1" d="m206.7 110c-0.2-0.2-0.4-0.3-0.6-0.1-0.2 0.2-0.2 0.7 0 0.8 0.2 0.1 0.5-0.1 0.5-0.4z"/>
			</g>
			<g id="Layer">
				<path id="Layer" class="s1" d="m218.4 78.4l-11.1 8.4 1.9 1.5-8.5 8.4 13.1-9.3-2.1-1.5z"/>
			</g>
			<g id="Layer">
				<path id="Layer" class="s1" d="m164.4 79l9.4 8-1.8 1.2 7.1 7.9-11.1-8.9 1.9-1.3z"/>
			</g>
			<g id="Layer">
				<path id="Layer" class="s1" d="m192.9 60l-5.2 18.6h3.4l-2.3 16.2 6.5-21.1h-3.5z"/>
			</g>
		</g>
		<g id="Layer">
			<g id="Layer">
				<path id="Layer" class="s2" d="m175.7 111.9l-14-0.2-0.4-1 13.9-2.4z"/>
			</g>
			<g id="Layer" style="opacity: .2">
				<path id="Layer" class="s3" d="m175.7 111.9l-14-0.2-0.4-1 13.9-2.4z"/>
			</g>
			<g id="Layer">
				<g id="Layer">
					<path id="Layer" class="s4" d="m3.5 147.3l-0.4-0.2c-0.1 0-0.2-0.2-0.2-0.3l0.1-0.1c0-0.2 0.2-0.2 0.4-0.2l0.4 0.2z"/>
				</g>
				<g id="Layer">
					<path id="Layer" class="s4" d="m3 148.6l-0.5-0.2c-0.1 0-0.2-0.2-0.1-0.4 0.1-0.2 0.2-0.3 0.4-0.2l0.4 0.2z"/>
				</g>
				<g id="Layer">
					<path id="Layer" class="s4" d="m2.5 149.9l-0.5-0.2c-0.1 0-0.2-0.2-0.1-0.4v-0.1c0-0.1 0.2-0.2 0.4-0.1l0.4 0.1z"/>
				</g>
				<g id="Layer">
					<path id="Layer" class="s4" d="m2.2 151.3l-0.4-0.1q-0.3 0-0.3-0.3v-0.1q0.1-0.2 0.4-0.2l0.4 0.1z"/>
				</g>
				<g id="Layer">
					<path id="Layer" class="s4" d="m5.1 142.5c0 0-0.5-0.1-0.7 0.3-0.3 0.4-1.3 2.4-1 2.7 0.2 0.3 0.7 0.4 0.7 0.4l1.3-2.4-0.3-0.8"/>
				</g>
				<g id="Layer">
					<path id="Layer" class="s2" d="m15.5 142.9l154.8-17.9 2.1 18.3-154.7 17.9z"/>
				</g>
				<g id="Layer" style="opacity: .3">
					<path id="Layer" class="s3" d="m15.5 142.9l154.8-17.9 2.1 18.3-154.7 17.9z"/>
				</g>
				<g id="Layer">
					<path id="Layer" class="s2" d="m178 111.6c-2 0.2-14.6-0.1-14.6-0.1 0 0-20.7-6-30.7-7.4-8.7-1.2-25-0.5-25-0.5-3.6 0.3-7.6 0.7-11.1 1.2-4.5 0.7-8.8 1.7-13 3.2l-3.3 1.1c-2.8 1.1-5.6 2.5-8.2 4.1-3 1.8-6.8 4.2-9.3 6.1-4.5 3.5-10.4 8.1-10.6 8.2l-4 1.1c0 0-15.8 3.5-19.9 4.5-4 1-13.2 2.8-19.1 6.1-1.4 0.8-3 2-4.1 3.4-0.2 0.2 0.5 0.9 0.3 1.1-1.4 2.3-2.3 4.5-2.8 6q-0.6 1.9-0.6 3.9c0.1 1.4 0.2 3.4 0.2 3.4l1.7 5.2-1 0.2c-0.1 0-0.1 0-0.1 0q0.2 0.9 1.1 1.4l2.4 1.2q0 0 0 0l0.2 0.9q0 0 0 0c5 1.6 10.4 2 16 1.2l0.1-0.1-0.8-5.2c-0.1-0.5-0.2-1-0.2-1.6-1-8.9 5.3-16.9 14.1-17.9 8.9-1 16.9 5.3 17.9 14.2l0.3 2 1 4.7c0 0 0 0 0 0.1 1.2-0.1 33.6-4.2 37.8-4.5 4.3-0.3 42.2-5.2 43.1-5.3q0 0 0 0l0.9-1.3c-0.5-1.3-0.8-2.5-0.9-3.9-1.1-8.8 5.3-16.8 14.1-17.9 0.5 0 4.8-3.7 5.3-3.7 0.7 0 4.4 6.4 5.1 6.5 8 2.4 5.1-7.9 10.7-1.9l9.8-2c-0.2-0.7 1.4-6.2 1.2-6.4"/>
				</g>
				<g id="Layer" style="opacity: .3">
					<g id="Layer">
						<path id="Layer" class="s3" d="m121 147.7l-49.4 5.8c-2.3 0.2-4.4-0.3-6.3-1.6l57.1-6.8z"/>
					</g>
				</g>
				<g id="Layer">
					<g id="Layer">
						<path id="Layer" class="s4" d="m165.2 132.4q0 0-0.2-0.2c-0.2-0.2-0.4-0.5-0.8-0.8-0.6-0.7-1.6-1.5-3-2.4-0.7-0.4-1.5-0.9-2.4-1.3-0.9-0.4-1.8-0.8-2.9-1-2.1-0.6-4.5-0.8-6.9-0.5-2.5 0.4-4.8 1.2-6.7 2.3-0.9 0.5-1.7 1.2-2.5 1.8-0.7 0.6-1.4 1.2-1.9 1.8-1.2 1.2-1.9 2.3-2.4 3.1-0.2 0.4-0.3 0.8-0.5 1-0.1 0.2-0.1 0.3-0.1 0.3 0-0.1 0-0.2 0.1-0.4 0.1-0.2 0.2-0.5 0.5-0.9 0.4-0.8 1.1-1.9 2.2-3.2 0.6-0.6 1.2-1.2 1.9-1.9 0.8-0.6 1.6-1.2 2.6-1.7 1.9-1.2 4.2-2 6.7-2.4 2.5-0.3 5-0.1 7.1 0.5 1 0.2 2 0.6 2.9 1 0.9 0.4 1.6 0.9 2.4 1.3 1.3 0.9 2.4 1.8 3 2.5 0.3 0.3 0.5 0.6 0.7 0.7 0.1 0.3 0.2 0.4 0.2 0.4z"/>
					</g>
				</g>
				<g id="Layer">
					<g id="Layer">
						<path id="Layer" class="s4" d="m163.4 111.5c0-0.1 0.8 1.6 2.2 3.4 0.7 0.9 1.3 1.6 1.9 2.1 0.5 0.5 0.9 0.8 0.8 0.8 0 0.1-0.4-0.2-0.9-0.6-0.6-0.5-1.4-1.2-2-2.1-0.7-0.9-1.2-1.8-1.6-2.5-0.3-0.6-0.5-1.1-0.4-1.1z"/>
					</g>
				</g>
				<g id="Layer">
					<g id="Layer">
						<path id="Layer" class="s4" d="m145 111.5q0 0 0.2 0.4c0.1 0.3 0.2 0.7 0.2 1.3 0 1.1-0.5 2.9-1.6 4.9-1.7 3.4-4.1 8.2-7.1 14.2-1.5 3-3.2 6.3-5 9.8q-0.7 1.3-1.5 2.7c-0.2 0.4-0.5 0.8-0.8 1.3-0.1 0.2-0.2 0.5-0.3 0.7-0.2 0.2-0.3 0.4-0.5 0.7-0.7 0.8-1.4 1.7-2.4 2.3-0.9 0.6-2.1 0.8-3.2 1-4.5 0.7-9.2 1.2-14.3 1.8-5 0.6-10.2 1.2-15.7 1.8-10.8 1.3-22.4 2.7-34.5 4.1h-0.1l-0.1-0.1c-0.6-2.2-1.2-4.6-1.7-7.1-0.4-1.6-0.7-3.3-0.9-5-0.2-1.7-0.4-3.4-0.5-5q-0.2-2.6-0.3-5c0-1.6 0.1-3.3 0.5-4.9v0.1c0-0.5 0.2-0.9 0.4-1.3 0.1-0.4 0.3-0.8 0.6-1.2q0.7-1.1 1.6-2c1.2-1.3 2.6-2.4 3.9-3.5q3.9-3.3 8-6c0.6-0.5 1.3-0.9 2-1.4 0.7-0.4 1.4-0.8 2.1-1.2 0.7-0.4 1.4-0.8 2.1-1.2 0.7-0.3 1.4-0.7 2.1-1 2.8-1.4 5.7-2.5 8.5-3.5 5.7-1.9 11.2-3 16.4-3.5 5.2-0.5 10.2-0.7 14.6-0.5 8.8 0.3 15.8 1.6 20.5 3 2.4 0.7 4.1 1.4 5.2 2 0.6 0.3 1 0.6 1.2 0.9 0.3 0.3 0.4 0.4 0.4 0.4 0 0-0.1-0.1-0.3-0.4-0.2-0.2-0.6-0.5-1.2-0.8-1.1-0.6-2.9-1.3-5.2-1.9-4.6-1.4-11.7-2.7-20.5-3-4.4-0.1-9.3 0-14.5 0.5-5.3 0.6-10.8 1.7-16.4 3.5-2.9 1-5.7 2.1-8.5 3.5q-1.1 0.5-2.1 1.1c-0.7 0.3-1.4 0.7-2.1 1.1-0.7 0.4-1.4 0.8-2.1 1.2-0.7 0.5-1.3 0.9-2 1.4-2.8 1.8-5.4 3.8-8 6-1.3 1.1-2.6 2.2-3.8 3.5-0.6 0.6-1.1 1.2-1.6 2-0.4 0.7-0.9 1.5-0.9 2.3v0.1c-0.4 1.5-0.5 3.1-0.5 4.8q0 2.4 0.2 4.9 0.2 2.5 0.6 5c0.2 1.7 0.6 3.4 0.9 5 0.6 2.5 1.1 4.9 1.7 7.1l-0.1-0.1c12.1-1.4 23.7-2.7 34.6-4q8.1-1 15.7-1.9c4.9-0.6 9.7-1.1 14.2-1.7 1.1-0.2 2.2-0.5 3.1-1.1 0.9-0.6 1.7-1.4 2.3-2.2 0.2-0.2 0.3-0.4 0.5-0.6 0.1-0.3 0.2-0.5 0.4-0.7 0.2-0.5 0.5-0.9 0.7-1.4q0.8-1.3 1.5-2.7c1.9-3.5 3.5-6.8 5.1-9.8 3-5.9 5.4-10.7 7.1-14.1 1.1-2 1.6-3.8 1.6-4.9-0.1-1.2-0.4-1.7-0.4-1.7z"/>
					</g>
				</g>
				<g id="Layer">
					<path id="Layer" class="s4" d="m6 149.5c0 0-0.9-4.1 2.9-6 3.9-1.9 14.7-4.8 14.7-4.2 0 0.6-9 8.1-12 9.2-3.1 1-5.6 1-5.6 1z"/>
				</g>
				<g id="Layer">
					<path id="Layer" class="s4" d="m60.9 127.4c0 0 8.9-9.7 20.9-14.6 11.9-4.8 17.8-4.9 17.8-4.9l-1.6 14.3-37 6.3z"/>
				</g>
				<g id="Layer">
					<g id="Layer">
						<path id="Layer" class="s4" d="m105.7 121.6c0 0 0.1 0 0.2 0q0.2-0.1 0.6-0.1 0.7-0.1 2.1-0.3c1.8-0.3 4.4-0.7 7.8-1.1 6.6-1 15.9-2.3 26.4-3.7v0.1c-0.3-1.4-0.8-2.8-1.5-4.1-0.4-0.7-1-1.1-1.7-1.4-0.7-0.4-1.4-0.7-2.1-0.9-1.5-0.5-3.1-0.9-4.6-1.2-1.5-0.3-3-0.6-4.6-0.8-3-0.4-5.9-0.8-8.6-0.9q-4.2-0.2-7.9-0.2c-1.3 0-2.5 0.1-3.6 0.1-0.6 0-1.2 0-1.7 0-0.2 0-0.3 0-0.4 0.1-0.2 0-0.2 0.1-0.3 0.1q-0.3 0.3-0.2 0.7c0 4.2 0 7.6 0.1 9.9q0 1.8 0 2.8 0 0.4 0 0.7c0.1 0.1 0 0.2 0 0.2q0 0 0-0.2 0-0.3 0-0.7 0-1-0.1-2.7c0-2.4-0.1-5.8-0.2-10 0-0.2 0.1-0.6 0.3-0.8q0.2-0.1 0.5-0.2c0.1 0 0.3 0 0.4 0 0.5 0 1.1-0.1 1.7-0.1 1.1 0 2.3 0 3.6-0.1 2.5 0 5.1 0 7.9 0.2 2.8 0.1 5.7 0.4 8.7 0.9q2.3 0.3 4.6 0.8c1.5 0.3 3 0.6 4.6 1.2q1.1 0.3 2.1 0.9c0.4 0.2 0.7 0.3 1 0.6 0.3 0.2 0.6 0.6 0.8 0.9 0.7 1.3 1.2 2.8 1.5 4.2v0.1h-0.1c-10.6 1.5-19.9 2.7-26.6 3.6-3.3 0.5-6 0.8-7.8 1.1-0.9 0.1-1.6 0.2-2.1 0.2-0.2 0.1-0.4 0.1-0.6 0.1-0.1 0-0.2 0-0.2 0z"/>
					</g>
				</g>
				<g id="Layer">
					<g id="Layer">
						<path id="Layer" class="s4" d="m101.9 123.7q0 0-0.2 0.1c-0.2 0-0.4 0-0.6 0.1q-0.9 0.1-2.3 0.3c-1 0.2-2.2 0.4-3.7 0.6-1.4 0.3-3 0.5-4.8 0.9-7.1 1.2-16.9 3.1-27.8 5.2-10.8 2.2-20.7 4.2-27.7 5.7-3.6 0.8-6.4 1.4-8.4 1.9-1 0.2-1.7 0.4-2.2 0.5-0.3 0.1-0.5 0.2-0.6 0.2q-0.2 0-0.3 0 0.1 0 0.3-0.1 0.2 0 0.6-0.2c0.5-0.1 1.2-0.3 2.2-0.6 2-0.5 4.8-1.1 8.4-1.9 7.1-1.6 16.9-3.6 27.7-5.8 10.9-2.1 20.7-4 27.9-5.2q2.7-0.4 4.8-0.8c1.4-0.2 2.6-0.4 3.6-0.6 1-0.1 1.8-0.2 2.3-0.3 0.3 0 0.5 0 0.6 0 0.1 0 0.2 0 0.2 0z"/>
					</g>
				</g>
				<g id="Layer">
					<g id="Layer">
						<path id="Layer" class="s4" d="m50.1 133.4c-0.1 0 0.8-1.1 1.3-2.7 0.6-1.5 0.6-2.9 0.7-2.9 0 0 0.1 0.3 0 0.9 0 0.5-0.1 1.3-0.4 2.1-0.3 0.8-0.7 1.5-1 2-0.3 0.4-0.5 0.6-0.6 0.6z"/>
					</g>
				</g>
				<g id="Layer">
					<g id="Layer">
						<path id="Layer" class="s4" d="m11.8 142.4c0 0-1.1-0.1-2.1-0.8-1.1-0.6-1.7-1.4-1.7-1.4 0.1-0.1 0.7 0.6 1.8 1.2 1 0.7 2 0.9 2 1z"/>
					</g>
				</g>
				<g id="Layer">
					<path id="Layer" class="s0" d="m21.1 140.4l-8.5 2.3c0 0-5.3 1.4-5.5 4.1l-0.1 1.7c0 0 3.7 0.1 6-1.4 2.4-1.5 8.1-6.7 8.1-6.7z"/>
				</g>
				<g id="Layer">
					<g id="Layer">
						<path id="Layer" class="s4" d="m22 146.6c-0.1 0.1-0.7-0.2-1.5-0.7-0.8-0.4-1.4-0.8-1.4-0.8 0.1-0.1 0.7 0.2 1.5 0.6 0.8 0.5 1.4 0.8 1.4 0.9z"/>
					</g>
				</g>
				<g id="Layer">
					<g id="Layer">
						<path id="Layer" class="s4" d="m53.1 147q0 0-0.2-0.3c-0.1-0.2-0.1-0.3-0.3-0.5q-0.1-0.2-0.3-0.5-0.2-0.3-0.5-0.7c-0.2-0.2-0.4-0.5-0.7-0.7-0.5-0.5-1-1.1-1.7-1.6-1.5-1.1-3.4-2.1-5.6-2.8-2.3-0.7-4.9-0.9-7.6-0.7-2.8 0.2-5.3 0.9-7.4 2-2.2 1-3.9 2.3-5.1 3.6-1.3 1.2-2.2 2.4-2.7 3.3q-0.4 0.6-0.6 1-0.2 0.3-0.2 0.3 0 0 0.2-0.4 0.1-0.4 0.5-1c0.5-0.9 1.4-2.1 2.7-3.4 1.2-1.3 2.9-2.6 5.1-3.7 2.1-1 4.7-1.7 7.5-2 2.7-0.2 5.4 0 7.6 0.8 2.4 0.7 4.2 1.8 5.7 2.8q1.1 0.9 1.8 1.7c0.2 0.2 0.4 0.5 0.6 0.7q0.3 0.4 0.5 0.7 0.2 0.3 0.3 0.6c0.1 0.1 0.2 0.3 0.2 0.4 0.1 0.3 0.2 0.4 0.2 0.4z"/>
					</g>
				</g>
				<g id="Layer">
					<g id="Layer">
						<path id="Layer" class="s4" d="m135.9 149.4c0 0.1-18.3 2.2-41 4.8-22.6 2.6-40.9 4.7-41 4.6 0 0 18.3-2.2 41-4.8 22.6-2.6 41-4.7 41-4.6z"/>
					</g>
				</g>
				<g id="Layer">
					<path id="Layer" class="s4" d="m106.6 110.6l-0.1-2.5c0.7-0.1 16.1-0.3 24.7 1.3 6.8 1.4 8.8 3.2 9 3.7l-2.1 0.3-2.7 0.5c-0.8 0.1-1.4 0.5-1.9 1.1-0.4 0.6-0.9 1.4-0.8 2.1l-25.1 2.9c-0.2 0-0.5-0.2-0.5-0.4z"/>
				</g>
				<g id="Layer">
					<path id="Layer" class="s2" d="m126.8 108.7l-0.5 9.1 1.2-0.2 0.6-8.7z"/>
				</g>
				<g id="Layer">
					<path id="Layer" class="s2" d="m106 111c0 0 2.1-0.1 2.4 0.6 0.3 0.6 1.2 5.3 0.9 5.9-0.3 0.6-1 0.9-1 0.9v0.2c0 0 1.6 0.1 1.7 0.9 0.1 0.8 0.1 0.8 0.1 0.8l-3.9 0.5z"/>
				</g>
				<g id="Layer">
					<path id="Layer" class="s2" d="m61.9 127.2l-2.3 0.8c0 0 2 1.2 2.5 1.4 0.5 0.1 3.1-0.6 3.1-0.6 0 0-2-1.9-3.3-1.6z"/>
				</g>
				<g id="Layer" style="opacity: .1">
					<g id="Layer">
						<path id="Layer" class="s5" d="m9.8 141.4c13.1-5.9 25.2-9 39.3-11.2l-23.3 7.6 8.5-3.7c0 0-5.8 1.2-9 2.1-3.2 1-15.5 5.2-15.5 5.2z"/>
					</g>
				</g>
				<g id="Layer">
					<path id="Layer" class="s5" d="m15.6 142.9l-3.4 4.7c0 0-3 1.1-5.2 0.9v-1.8c0 0 0.2-1.4 2.1-2.5 1.5-0.9 6.5-1.3 6.5-1.3z"/>
				</g>
				<g id="Layer" style="opacity: .3">
					<path id="Layer" class="s3" d="m2.2 157.2c0 0 11.6-0.9 12.9 4.7 0 0-7.3 1.3-11.3 0.3z"/>
				</g>
				<g id="Layer">
					<path id="Layer" class="s5" d="m9.6 158.6c-0.1 0 0.5 3.1 0.5 3.1 0 0 2.4 0 4.4-0.1 0 0-1.6-2.9-4.9-3z"/>
				</g>
				<g id="Layer">
					<path id="Layer" class="s4" d="m2.8 162.3c0 0 1.7 1.3 5.4 1.2 3.7 0 11.9-1.1 11.9-1.1l-5.8-2.3 0.8 1.8-11.3 0.3z"/>
				</g>
				<g id="Layer">
					<g id="Layer">
						<g id="Layer">
							<g id="Layer">
								<g id="Layer">
									<g id="Layer">
										<g id="Layer">
											<g id="Layer">
												<g id="Layer">
													<path id="Layer" class="s2" d="m39.1 173.4c-7.9 0.8-15-5.2-15.9-13.4-0.8-8.2 5-15.5 12.9-16.3 7.9-0.8 15 5.2 15.9 13.4 0.8 8.2-4.9 15.5-12.9 16.3z"/>
												</g>
											</g>
										</g>
									</g>
								</g>
							</g>
						</g>
					</g>
					<g id="Layer">
						<g id="Layer">
							<g id="Layer">
								<g id="Layer">
									<g id="Layer">
										<g id="Layer">
											<g id="Layer">
												<g id="Layer">
													<path id="Layer" class="s2" d="m23.2 160q0.1 0 0 0c0.9 8.2 8 14.2 15.9 13.4 7.9-0.8 13.7-8.1 12.9-16.3z"/>
												</g>
											</g>
										</g>
									</g>
								</g>
							</g>
						</g>
					</g>
					<g id="Layer">
						<g id="Layer">
							<g id="Layer">
								<g id="Layer">
									<g id="Layer">
										<g id="Layer">
											<g id="Layer">
												<g id="Layer">
													<path id="Layer" class="s6" d="m27.5 159.6c0.6 5.7 5.6 9.9 11.2 9.4 5.5-0.6 9.6-5.7 9-11.5-0.6-5.7-5.6-9.9-11.1-9.4-5.6 0.6-9.7 5.8-9.1 11.5z"/>
												</g>
											</g>
										</g>
									</g>
								</g>
							</g>
						</g>
					</g>
					<g id="Layer">
						<g id="Layer">
							<g id="Layer">
								<g id="Layer">
									<g id="Layer">
										<g id="Layer">
											<g id="Layer">
												<g id="Layer">
													<path id="Layer" class="s0" d="m36.5 148.1c-5.5 0.6-9.6 5.7-9 11.5l20.2-2.1c-0.6-5.7-5.6-9.9-11.2-9.4z"/>
												</g>
											</g>
										</g>
									</g>
								</g>
							</g>
						</g>
					</g>
					<g id="Layer">
						<g id="Layer">
							<g id="Layer">
								<g id="Layer">
									<g id="Layer">
										<g id="Layer">
											<g id="Layer">
												<g id="Layer">
													<path id="Layer" class="s2" d="m31.5 159.2c0.3 3.5 3.4 6.1 6.7 5.7 3.4-0.3 5.9-3.4 5.6-6.9-0.4-3.6-3.5-6.1-6.8-5.8-3.4 0.4-5.9 3.5-5.5 7z"/>
												</g>
											</g>
										</g>
									</g>
								</g>
							</g>
						</g>
					</g>
				</g>
				<g id="Layer">
					<g id="Layer">
						<g id="Layer">
							<g id="Layer">
								<g id="Layer">
									<g id="Layer">
										<g id="Layer">
											<g id="Layer">
												<g id="Layer">
													<path id="Layer" class="s2" d="m137.7 148.3c0.8 8.2 7.9 14.2 15.9 13.4 7.9-0.8 13.7-8.1 12.8-16.3-0.8-8.2-7.9-14.2-15.9-13.4-7.9 0.8-13.6 8.1-12.8 16.3z"/>
												</g>
											</g>
										</g>
									</g>
								</g>
							</g>
						</g>
					</g>
					<g id="Layer">
						<g id="Layer">
							<g id="Layer">
								<g id="Layer">
									<g id="Layer">
										<g id="Layer">
											<g id="Layer">
												<g id="Layer">
													<path id="Layer" class="s2" d="m137.7 148.3c0.8 8.2 7.9 14.2 15.9 13.4 7.9-0.8 13.7-8.1 12.8-16.3z"/>
												</g>
											</g>
										</g>
									</g>
								</g>
							</g>
						</g>
					</g>
					<g id="Layer">
						<g id="Layer">
							<g id="Layer">
								<g id="Layer">
									<g id="Layer">
										<g id="Layer">
											<g id="Layer">
												<g id="Layer">
													<path id="Layer" class="s6" d="m142 147.9c0.6 5.7 5.6 9.9 11.1 9.4 5.6-0.6 9.7-5.7 9.1-11.5-0.6-5.7-5.6-9.9-11.1-9.4-5.6 0.6-9.7 5.7-9.1 11.5z"/>
												</g>
											</g>
										</g>
									</g>
								</g>
							</g>
						</g>
					</g>
					<g id="Layer">
						<g id="Layer">
							<g id="Layer">
								<g id="Layer">
									<g id="Layer">
										<g id="Layer">
											<g id="Layer">
												<g id="Layer">
													<path id="Layer" class="s0" d="m151 136.4c-5.5 0.6-9.6 5.7-9 11.5l20.2-2.1c-0.6-5.7-5.6-9.9-11.2-9.4z"/>
												</g>
											</g>
										</g>
									</g>
								</g>
							</g>
						</g>
					</g>
					<g id="Layer">
						<g id="Layer">
							<g id="Layer">
								<g id="Layer">
									<g id="Layer">
										<g id="Layer">
											<g id="Layer">
												<g id="Layer">
													<path id="Layer" class="s2" d="m145.9 147.5c0.4 3.5 3.4 6.1 6.8 5.7 3.4-0.3 5.9-3.4 5.5-7-0.3-3.5-3.4-6-6.8-5.7-3.4 0.4-5.8 3.5-5.5 7z"/>
												</g>
											</g>
										</g>
									</g>
								</g>
							</g>
						</g>
					</g>
				</g>
				<g id="Layer">
					<path id="Layer" class="s2" d="m130.6 108.6l0.5 9.2 1.3-0.2-0.2-8.7z"/>
				</g>
				<g id="Layer">
					<path id="Layer" class="s2" d="m73.1 127.2c0 0-1.3-3.1-1.7-3.3-0.4-0.2-1.3 0-1.3 0.4 0.1 0.5 1.2 3.1 1.2 3.1z"/>
				</g>
				<g id="Layer">
					<g id="Layer">
						<path id="Layer" class="s2" d="m68.6 122.9c0 0-1.1-1.4-2.1-1.2-1 0.2-2.3 1.3-3.1 2.4-0.5 0.6-1.7 2.5-1.4 3.7 0.2 1.1 1.4 1.1 2.8 1 1.4 0 4.7-0.7 5.3-1.3 0.5-0.6 0.1-3.2-1.5-4.6z"/>
					</g>
					<g id="Layer">
						<g id="Layer">
							<path id="Layer" class="s4" d="m68.6 122.9q0 0 0.2 0.2 0.2 0.1 0.5 0.5c0.4 0.5 0.9 1.2 1 2.4 0.1 0.2 0.1 0.5 0.1 0.9 0 0.1-0.1 0.3-0.2 0.4 0 0.2-0.2 0.3-0.3 0.4-0.6 0.3-1.3 0.5-2 0.7-0.7 0.2-1.5 0.3-2.3 0.4-0.4 0.1-0.8 0.1-1.2 0.1-0.4 0-0.9 0-1.3-0.1-0.4-0.1-0.9-0.3-1.1-0.7-0.2-0.4-0.3-0.9-0.2-1.2 0.2-0.9 0.5-1.5 0.9-2.2 0.4-0.6 0.9-1.1 1.3-1.6q0.7-0.7 1.5-1.1c0.5-0.3 1-0.5 1.5-0.4 0.4 0.1 0.7 0.3 1 0.5q0.4 0.3 0.5 0.5c0.1 0.2 0.2 0.3 0.1 0.3 0 0-0.2-0.3-0.7-0.6-0.3-0.2-0.6-0.4-1-0.5-0.4-0.1-0.9 0.1-1.4 0.4-0.4 0.3-0.9 0.6-1.3 1.1q-0.7 0.7-1.3 1.6c-0.3 0.6-0.7 1.3-0.9 2q-0.1 0.6 0.2 1.2c0.1 0.3 0.5 0.4 0.9 0.5 0.4 0.1 0.8 0.1 1.2 0.1q0.7 0 1.2 0c0.8-0.1 1.6-0.3 2.3-0.5 0.6-0.1 1.3-0.4 1.9-0.7 0.1 0 0.2-0.1 0.3-0.2q0-0.2 0.1-0.4c0.1-0.3 0.1-0.6 0-0.9-0.2-1-0.6-1.8-0.9-2.3-0.3-0.6-0.6-0.8-0.6-0.8z"/>
						</g>
					</g>
				</g>
				<g id="Layer">
					<g id="Layer">
						<path id="Layer" class="s4" d="m69.5 127.7c-0.1 0 0-0.4-0.1-1.1-0.1-0.6-0.3-1.5-0.7-2.3-0.5-0.9-1.2-1.5-1.7-1.8-0.5-0.4-0.8-0.6-0.8-0.6 0-0.1 0.4 0 0.9 0.4 0.6 0.4 1.3 1 1.8 1.9 0.5 0.9 0.7 1.8 0.7 2.4 0 0.7-0.1 1.1-0.1 1.1z"/>
					</g>
				</g>
				<g id="Layer">
					<g id="Layer">
						<path id="Layer" class="s4" d="m60.8 129.7c0-0.1 0.7-0.4 1.7-0.7 0.9-0.2 1.7-0.3 1.7-0.3 0 0.1-0.8 0.3-1.6 0.5-1 0.3-1.7 0.6-1.8 0.5z"/>
					</g>
				</g>
				<g id="Layer">
					<g id="Layer">
						<path id="Layer" class="s4" d="m62 127.2c0 0.1-0.6 0.3-1.5 0.6-0.8 0.3-1.5 0.4-1.5 0.3 0 0 0.6-0.3 1.5-0.5 0.8-0.3 1.5-0.4 1.5-0.4z"/>
					</g>
				</g>
				<g id="Layer">
					<path id="Layer" class="s4" d="m73.9 112l1.9 0.9c-8.1 4.5-16.1 10.1-23.9 16.4l0.1-1.7c0 0 7.3-6 11.8-9.2 4.5-3.2 10.1-6.4 10.1-6.4z"/>
				</g>
				<g id="Layer">
					<path id="Layer" class="s4" d="m137.3 106.4l19.2 4.7 3.3-0.6c0 0-15.5-4.2-22.3-5.5z"/>
				</g>
				<g id="Layer">
					<g id="Layer">
						<path id="Layer" class="s4" d="m22.4 165.9q0 0-0.6 0.1c-0.4 0.1-1 0.2-1.7 0.2-1.5 0.1-3.5 0.2-5.7 0-2.2-0.1-4.3-0.4-5.7-0.7q-1.1-0.3-1.7-0.4c-0.4-0.1-0.6-0.2-0.6-0.2q0-0.1 0.7 0.1c0.4 0 1 0.2 1.7 0.3 1.4 0.3 3.4 0.6 5.6 0.7 2.2 0.1 4.2 0.1 5.7 0 0.7-0.1 1.3-0.1 1.7-0.1q0.6 0 0.6 0z"/>
					</g>
				</g>
				<g id="Layer">
					<g id="Layer">
						<path id="Layer" class="s4" d="m17.2 160.2c-0.1 0.1-0.6-0.6-1.8-1.5-1.1-0.9-2.8-2-4.8-2.7-2.1-0.7-4.1-0.8-5.5-0.7-1.5 0-2.3 0.2-2.3 0.2 0 0 0.2-0.1 0.6-0.2 0.3-0.1 0.9-0.2 1.7-0.2 1.4-0.1 3.4 0 5.6 0.7 2.1 0.7 3.8 1.8 4.9 2.7 0.5 0.5 1 0.9 1.2 1.2q0.4 0.5 0.4 0.5z"/>
					</g>
				</g>
				<g id="Layer">
					<g id="Layer">
						<path id="Layer" class="s4" d="m23.2 141.5q0 0-0.6 0.5c-0.4 0.3-1 0.7-1.7 1.3-1.4 1.2-3.2 2.9-5.3 4.6-2.2 1.7-4.5 2.8-6.3 3.3q-1.3 0.3-2.1 0.2-0.4 0-0.6 0-0.2 0-0.2 0c0-0.1 1.1 0 2.8-0.4 1.8-0.4 4-1.6 6.2-3.3 2.1-1.7 3.9-3.4 5.3-4.5 0.7-0.5 1.3-1 1.7-1.3 0.2-0.1 0.4-0.2 0.5-0.3 0.2-0.1 0.3-0.1 0.3-0.1z"/>
					</g>
				</g>
				<g id="Layer">
					<g id="Layer">
						<path id="Layer" class="s4" d="m104.3 153.1q0 0 0-0.1c-0.1-0.1-0.1-0.3-0.1-0.4q-0.1-0.5-0.3-1.3c-0.3-1.2-0.8-2.9-1.2-5-0.3-1-0.5-2.2-0.7-3.4-0.2-1.3-0.4-2.6-0.6-4-0.2-1.5-0.3-2.9-0.4-4.5-0.1-1.5-0.2-3.1-0.2-4.8q0.2-2.5 0.4-4.8 0.1-1.1 0.2-2.2c0-0.7 0.1-1.5 0.1-2.2 0.3-2.8 0.5-5.4 0.7-7.5 0.2-2.1 0.3-3.9 0.4-5.1 0.1-0.6 0.1-1 0.1-1.4 0-0.1 0.1-0.2 0.1-0.3q0-0.1 0-0.1 0 0 0 0.1 0 0.1 0 0.3 0 0.6-0.1 1.4-0.1 1.9-0.3 5.1c-0.2 2.1-0.4 4.7-0.6 7.6-0.1 0.7-0.2 1.4-0.2 2.1-0.1 0.8-0.2 1.5-0.2 2.3-0.2 1.5-0.3 3.1-0.4 4.8-0.1 1.6 0.1 3.2 0.2 4.8q0.1 2.3 0.4 4.4 0.2 2.1 0.5 4 0.4 1.9 0.7 3.5c0.5 2.1 0.9 3.8 1.1 4.9 0.2 0.6 0.3 1.1 0.3 1.4 0.1 0.1 0.1 0.3 0.1 0.3z"/>
					</g>
				</g>
				<g id="Layer" style="opacity: .1">
					<g id="Layer">
						<path id="Layer" class="s5" d="m33.6 140.3c-0.2-0.1-0.5 0-0.8 0.1-4.2 1.1-8 3.6-10.9 7q-0.3 0.4-0.5 0.8c-0.3 0.5-0.3 1-0.3 1.4 0 0.5 0.7 0.8 1.1 0.4 0.3-0.3 0.5-0.7 0.8-1.1 2.4-3.4 6.1-6 10.1-7.1 0.3-0.1 0.5-0.2 0.8-0.3 0.2-0.2 0.3-0.5 0.3-0.7-0.1-0.3-0.3-0.5-0.6-0.5z"/>
					</g>
				</g>
				<g id="Layer" style="opacity: .1">
					<path id="Layer" class="s5" d="m35.7 141.1c-0.4 0-0.7-0.3-0.7-0.7 0-0.3 0.3-0.6 0.7-0.6 0.4 0 0.7 0.3 0.7 0.6 0 0.4-0.3 0.7-0.7 0.7z"/>
				</g>
			</g>
			<g id="Layer" style="opacity: .2">
				<path id="Layer" class="s3" d="m169.6 119.7c0 0-0.6-1.9-3.5-1.9l-1-0.5h-8.8l3.9 4 4.1 2.1-2.3 10c0 0 8.6-11.4 8.5-11.6-0.1-0.2-0.9-2.1-0.9-2.1z"/>
			</g>
			<g id="Layer">
				<path id="Layer" class="s2" d="m160.7 133.1c-0.2 0.2-2.5-0.4-2.5-0.4l-3.9-3-2.4 0.9c0 0-2.8-0.7-4.7-0.1-1.8 0.5-8.3 5.3-9.3 7.3-0.9 2-2 3-2 3l-3.1-2.6c0 0 12.6-10.4 13.3-11 0.6-0.6 9-0.8 9-0.8 0 0 3.8 1.5 4.5 3.7 0.8 2.4 1.1 3 1.1 3z"/>
			</g>
			<g id="Layer" style="opacity: .2">
				<path id="Layer" class="s3" d="m150.9 112.4c0.1 0.3 0.3 5-0.7 5.9-1 0.9-1.4 2.4-1.4 2.4 0 0 5.2-3.7 4.6-5.6-0.6-1.9-2.5-2.7-2.5-2.7z"/>
			</g>
			<g id="Layer" style="opacity: .2">
				<path id="Layer" class="s3" d="m150.5 126l-0.9-0.9c0 0-5.6-1.4-6.2-2.1-0.6-0.8-0.6-2.9-0.6-2.9l-1 2c0 0-0.4 0.5-0.7 4-0.4 3.4-2.9 5.6-2.9 5.6 0 0 5.2-5.8 12.3-5.7z"/>
			</g>
			<g id="Layer">
				<g id="Layer">
					<g id="Layer">
						<path id="Layer" class="s2" d="m182.1 121.7q0-0.2-0.2-0.1c-1.2 0.2-8.5 1.4-9.8 2.6-1.3 1.3 0.2 6.5-0.8 8.8-1.1 2.2-5.6 5.3-5.2 5.7 0.9 0.9 5.7 6.6 7.6 6.3 2-0.2 5.1-3.2 5.1-3.2l3.6-19.8z"/>
					</g>
					<g id="Layer">
						<g id="Layer">
							<path id="Layer" class="s4" d="m182.1 121.7c0 0 0.1 0 0.1 0.1q0 0 0.2 0.2c-0.3 1.7-1.7 9.4-3.5 19.8v0.1h-0.1c-0.6 0.6-1.4 1.2-2.1 1.7q-0.6 0.4-1.1 0.8-0.7 0.4-1.4 0.6c-0.1 0.1-0.2 0.1-0.3 0.1q-0.2 0-0.4 0c-0.2 0-0.5 0-0.7-0.1-0.5-0.2-0.9-0.5-1.3-0.8-0.8-0.6-1.5-1.3-2.3-2-0.8-0.7-1.5-1.5-2.2-2.3l-0.6-0.6-0.2-0.3-0.2-0.1q0.1 0 0-0.1-0.1 0 0-0.1-0.1-0.1 0-0.2c0.2-0.3 0.3-0.4 0.5-0.6 0.2-0.2 0.4-0.4 0.6-0.6 0.7-0.7 1.5-1.3 2.2-2.1 0.7-0.7 1.4-1.4 1.8-2.2 0.4-0.9 0.4-1.8 0.4-2.7 0-0.9 0-1.8-0.1-2.6 0-0.9 0-1.7 0.1-2.5 0.1-0.4 0.2-0.8 0.5-1.1q0.4-0.4 1-0.6c0.6-0.3 1.3-0.4 1.9-0.6q1-0.3 1.8-0.4 1.7-0.4 2.9-0.6 1.2-0.2 1.9-0.3c0.2 0 0.3-0.1 0.4 0 0.2 0 0.2 0.1 0.2 0.1q0 0-0.1-0.1c-0.1 0-0.2 0-0.5 0-0.4 0.1-1 0.2-1.8 0.4-0.8 0.2-1.7 0.3-2.9 0.6q-0.8 0.2-1.7 0.4-1 0.3-2 0.7-0.5 0.1-0.9 0.5c-0.2 0.3-0.3 0.6-0.4 1-0.1 0.8-0.1 1.6-0.1 2.4 0.1 0.9 0.1 1.7 0.1 2.7 0 0.9 0 1.9-0.5 2.8-0.4 0.8-1.1 1.6-1.8 2.3-0.7 0.7-1.5 1.4-2.2 2.1-0.2 0.2-0.4 0.3-0.6 0.5-0.1 0.2-0.4 0.4-0.4 0.6-0.1 0 0 0-0.1 0 0 0 0.1 0 0.1 0l0.1 0.1 0.2 0.3 0.6 0.6c0.7 0.8 1.4 1.6 2.3 2.4 0.7 0.7 1.4 1.3 2.2 1.9q0.6 0.5 1.2 0.8c0.2 0.1 0.4 0.1 0.7 0.1q0.1 0 0.3 0c0.1 0 0.2 0 0.3-0.1 0.5-0.1 0.9-0.3 1.3-0.5q0.6-0.4 1.1-0.8c0.8-0.5 1.5-1.1 2.1-1.6 1.9-10.4 3.3-18.2 3.7-19.9-0.1 0-0.2-0.1-0.2-0.2-0.1 0-0.1 0-0.1 0z"/>
						</g>
					</g>
				</g>
				<g id="Layer">
					<g id="Layer">
						<path id="Layer" class="s4" d="m182.4 122q0 0-0.3 0.1-0.3 0-0.7 0.2-1 0.3-2.8 0.7-1.8 0.4-4.1 1-0.6 0.1-1.1 0.4-0.5 0.4-0.7 1c0 0.4 0 0.9 0 1.3 0 0.4 0 0.9 0 1.4 0.1 0.8 0.1 1.8 0.1 2.6-0.1 0.9-0.3 1.8-0.6 2.5-0.7 1.5-1.8 2.5-2.7 3.3-0.9 0.8-1.6 1.4-2.1 1.8-0.2 0.3-0.4 0.4-0.5 0.6q-0.2 0.1-0.3 0.1 0 0 0.2-0.2c0.1-0.1 0.3-0.3 0.6-0.5 0.4-0.5 1.2-1.1 2.1-2 0.8-0.8 1.9-1.8 2.5-3.2q0.5-1.1 0.6-2.4c0-0.9 0-1.8-0.1-2.7 0-0.5 0-0.9 0-1.4 0-0.4-0.1-0.9 0.1-1.3 0.1-0.4 0.3-0.8 0.7-1.1 0.4-0.2 0.8-0.3 1.2-0.5 1.5-0.3 2.9-0.6 4.1-0.9q1.8-0.3 2.8-0.6 0.4-0.1 0.7-0.2 0.2 0 0.3 0z"/>
					</g>
				</g>
			</g>
			<g id="Layer">
				<path id="Layer" class="s2" d="m174.8 114.9c0 0 0.9-4.6-0.1-5-0.9-0.5-12.6 2-14.8 1.9-1.1-0.1-4.2-0.9-4.1-1.1 0.2-0.5 4.9-0.3 5.7-3.1 0 0 10.7-4.1 12.1-3.8 1.3 0.3 2.5 4.6 2.8 6.3 0.3 1.7-0.2 5.9-0.2 5.9z"/>
			</g>
			<g id="Layer">
				<g id="Layer">
					<path id="Layer" class="s4" d="m163.4 111.5c0 0-0.1 0-0.3 0q-0.4 0.1-0.9 0.2c-0.4 0-0.9 0-1.5 0.1-0.6 0-1.2 0-2-0.1-2.9-0.8-7.1-1.8-12.3-3.1-2.7-0.7-5.5-1.4-8.6-2.1q-4.6-0.9-9.9-1.6c-1.8-0.2-3.6-0.3-5.5-0.4-1.8 0-3.7-0.1-5.6-0.1-3.9 0.1-7.9 0.2-12 0.5-2.1 0.1-4.1 0.3-6 0.6-2 0.3-3.9 0.8-5.8 1.2-3.8 0.9-7.3 2-10.6 3.3-6.6 2.6-12.1 5.9-16.6 9-4.4 3-7.8 5.7-10.2 7.5-1.2 0.9-2.1 1.6-2.7 2.1-0.3 0.2-0.6 0.4-0.8 0.5q-0.2 0.2-0.2 0.2 0 0 0.2-0.2c0.2-0.2 0.4-0.3 0.8-0.6 0.6-0.5 1.5-1.2 2.7-2.1 2.4-1.8 5.8-4.5 10.2-7.6 4.4-3 10-6.4 16.5-9.1 3.3-1.3 6.9-2.4 10.7-3.3q2.8-0.7 5.7-1.2c2-0.3 4-0.5 6.1-0.6q6.1-0.5 11.9-0.5c1.9 0 3.9 0 5.7 0.1q2.8 0.1 5.5 0.4 5.3 0.7 9.9 1.6c3.1 0.7 5.9 1.4 8.6 2.1 5.2 1.3 9.4 2.4 12.3 3.2 0.7 0.2 1.4 0.1 1.9 0.1 0.6 0 1.1-0.1 1.5-0.1q0.5-0.1 0.9-0.1c0.3 0.1 0.4 0.1 0.4 0.1z"/>
				</g>
			</g>
			<g id="Layer">
				<g id="Layer">
					<path id="Layer" class="s4" d="m175.1 105.7c0 0 0 1 0 2.2 0 0.2 0 0.5 0.2 0.7 0 0.1 0.1 0.3 0.1 0.4q0 0.2-0.1 0.3c-0.2 0.4-0.5 0.5-0.5 0.5 0-0.1 0.2-0.2 0.4-0.5q0.1-0.3-0.1-0.6c-0.1-0.2-0.3-0.6-0.3-0.8 0-1.3 0.2-2.2 0.3-2.2z"/>
				</g>
			</g>
			<g id="Layer">
				<g id="Layer">
					<path id="Layer" class="s4" d="m153.5 115.5c-0.1 0-0.4-1-1.3-2-0.9-1-2-1.4-1.9-1.5 0 0 1.1 0.3 2.1 1.3 1 1 1.2 2.2 1.1 2.2z"/>
				</g>
			</g>
			<g id="Layer">
				<g id="Layer">
					<path id="Layer" class="s4" d="m163.1 129.1c0 0 0-0.2 0-0.4 0.1-0.3 0.1-0.7 0.3-1.2 0.2-1 0.5-2.4 0.8-4.1l0.1 0.1c-0.7-0.4-1.5-0.7-2.4-1.2-0.6-0.3-1.2-0.6-1.7-0.9-1.3-1.3-2.4-2.5-3.3-3.3-0.8-0.9-1.2-1.4-1.2-1.5q0.1 0.1 0.4 0.4 0.4 0.4 1 1c0.8 0.8 2 2 3.3 3.3h-0.1q0.9 0.4 1.8 0.9c0.8 0.4 1.6 0.8 2.3 1.2h0.1v0.1c-0.4 1.7-0.7 3.1-1 4.1q-0.2 0.7-0.3 1.2c-0.1 0.2-0.1 0.3-0.1 0.3z"/>
				</g>
			</g>
			<g id="Layer">
				<g id="Layer">
					<path id="Layer" class="s4" d="m179.9 135.3c0 0-2.3 1.7-5.2 3.6-2.9 2-5.2 3.6-5.3 3.5 0 0 2.3-1.7 5.2-3.7 2.8-1.9 5.2-3.5 5.3-3.4z"/>
				</g>
			</g>
			<g id="Layer">
				<path id="Layer" class="s1" d="m183 122.7c-0.1-0.3 0.5-1.2 0.4-1.7l-0.4-0.7v-1.3l-0.6-0.2c0 0 0.6-1.2 0.6-1.3-0.5-0.7-3.1-1.4-4.3-1.5-1.2-0.1-10.5 1.3-10.4 1.8 0 0 7.4 4.4 13.8 5.6z"/>
			</g>
			<g id="Layer" style="opacity: .4">
				<path id="Layer" class="s3" d="m175.7 116.2l0.6 1.9-0.7 0.7-4.6-1.9-0.5 2 4.3 0.4 0.9 2 2.3 0.9 3.2-1.5 1.8 2c0 0-1.8-2.5-1.7-2.5 0.1 0 1.2-3.1 1.2-3.1l-0.4-0.3-1.8 2.2h-0.4l-1.2-3-0.1 4.1-1.8-2z"/>
			</g>
			<g id="Layer" style="opacity: .2">
				<path id="Layer" class="s3" d="m141.7 105.9v0.5l-1.2 0.5h2l0.3 0.7 6.3 0.9 4.3 1.6 4.1-0.2z"/>
			</g>
		</g>
		<g id="Layer">
			<g id="Layer">
				<g id="Layer">
					<g id="Layer">
						<g id="Layer">
							<g id="Layer">
								<g id="Layer">
									<g id="Layer">
										<g id="Layer">
											<path id="Layer" class="s1" d="m185.5 134.6h150.9v22.2h-150.9z"/>
										</g>
									</g>
								</g>
							</g>
							<g id="Layer" style="opacity: .3">
								<g id="Layer">
									<g id="Layer">
										<g id="Layer">
											<path id="Layer" class="s3" d="m185.5 134.6h150.9v22.2h-150.9z"/>
										</g>
									</g>
								</g>
							</g>
							<g id="Layer">
								<g id="Layer">
									<g id="Layer">
										<g id="Layer">
											<g id="Layer">
												<g id="Layer">
													<g id="Layer">
														<g id="Layer">
															<path id="Layer" class="s2" d="m207 171.1c-8 0.7-15.1-5.2-15.8-13.3-0.7-8 5.2-15 13.3-15.7 8-0.7 15 5.2 15.7 13.2 0.7 8.1-5.2 15.1-13.2 15.8z"/>
														</g>
													</g>
												</g>
											</g>
										</g>
									</g>
								</g>
								<g id="Layer">
									<g id="Layer">
										<g id="Layer">
											<g id="Layer">
												<g id="Layer">
													<g id="Layer">
														<g id="Layer">
															<path id="Layer" class="s2" d="m191.2 156.4c-0.1 8 6.3 14.7 14.4 14.8 8 0.1 14.6-6.3 14.7-14.4z"/>
														</g>
													</g>
												</g>
											</g>
										</g>
									</g>
								</g>
								<g id="Layer">
									<g id="Layer">
										<g id="Layer">
											<g id="Layer">
												<g id="Layer">
													<g id="Layer">
														<g id="Layer">
															<path id="Layer" class="s6" d="m205.7 166.8c-5.6 0-10.2-4.5-10.2-10.2 0-5.7 4.6-10.2 10.2-10.2 5.7 0 10.3 4.5 10.3 10.2 0 5.7-4.6 10.2-10.3 10.2z"/>
														</g>
													</g>
												</g>
											</g>
										</g>
									</g>
								</g>
								<g id="Layer">
									<g id="Layer">
										<g id="Layer">
											<g id="Layer">
												<g id="Layer">
													<g id="Layer">
														<g id="Layer">
															<path id="Layer" class="s0" d="m205.9 146.4c-5.6-0.1-10.3 4.4-10.4 10.1l20.4 0.3c0.2-5.7-4.4-10.3-10-10.4z"/>
														</g>
													</g>
												</g>
											</g>
										</g>
									</g>
								</g>
								<g id="Layer">
									<g id="Layer">
										<g id="Layer">
											<g id="Layer">
												<g id="Layer">
													<g id="Layer">
														<g id="Layer">
															<path id="Layer" class="s2" d="m205.8 162.8c-3.5 0-6.3-2.8-6.3-6.2 0-3.5 2.8-6.3 6.3-6.3 3.4 0 6.2 2.8 6.2 6.3 0 3.4-2.8 6.2-6.2 6.2z"/>
														</g>
													</g>
												</g>
											</g>
										</g>
									</g>
								</g>
							</g>
							<g id="Layer">
								<g id="Layer">
									<g id="Layer">
										<g id="Layer">
											<g id="Layer">
												<g id="Layer">
													<g id="Layer">
														<g id="Layer">
															<path id="Layer" class="s2" d="m318 171.1c-8.1 0.5-15-5.5-15.5-13.6-0.5-8 5.6-14.9 13.6-15.4 8-0.6 15 5.5 15.5 13.6 0.5 8-5.6 14.9-13.6 15.4z"/>
														</g>
													</g>
												</g>
											</g>
										</g>
									</g>
								</g>
								<g id="Layer">
									<g id="Layer">
										<g id="Layer">
											<g id="Layer">
												<g id="Layer">
													<g id="Layer">
														<g id="Layer">
															<path id="Layer" class="s2" d="m302.5 156.4c-0.1 8 6.3 14.7 14.4 14.8 8 0.1 14.6-6.3 14.7-14.4z"/>
														</g>
													</g>
												</g>
											</g>
										</g>
									</g>
								</g>
								<g id="Layer">
									<g id="Layer">
										<g id="Layer">
											<g id="Layer">
												<g id="Layer">
													<g id="Layer">
														<g id="Layer">
															<path id="Layer" class="s6" d="m317 166.8c-5.6 0-10.2-4.5-10.2-10.2 0-5.7 4.6-10.2 10.2-10.2 5.7 0 10.3 4.5 10.3 10.2 0 5.7-4.6 10.2-10.3 10.2z"/>
														</g>
													</g>
												</g>
											</g>
										</g>
									</g>
								</g>
								<g id="Layer">
									<g id="Layer">
										<g id="Layer">
											<g id="Layer">
												<g id="Layer">
													<g id="Layer">
														<g id="Layer">
															<path id="Layer" class="s0" d="m317.2 146.4c-5.6-0.1-10.3 4.4-10.4 10.1l20.4 0.3c0.1-5.7-4.4-10.3-10-10.4z"/>
														</g>
													</g>
												</g>
											</g>
										</g>
									</g>
								</g>
								<g id="Layer">
									<g id="Layer">
										<g id="Layer">
											<g id="Layer">
												<g id="Layer">
													<g id="Layer">
														<g id="Layer">
															<path id="Layer" class="s2" d="m317.1 162.8c-3.5 0-6.3-2.8-6.3-6.2 0-3.5 2.8-6.3 6.3-6.3 3.4 0 6.2 2.8 6.2 6.3 0 3.4-2.8 6.2-6.2 6.2z"/>
														</g>
													</g>
												</g>
											</g>
										</g>
									</g>
								</g>
							</g>
							<g id="Layer">
								<g id="Layer">
									<g id="Layer">
										<path id="Layer" class="s1" d="m224.8 122.2c0 0-21.4 1.5-29.4 3.3-4.5 1.1-12.3 2.4-15.1 6.7 0 0-0.4 0.1-0.7 0.3-0.2 0-0.4 0.3-0.3 0.6 0.2 0.4 0.5 1.1 0.5 1.2 0 0.6-0.9 0.9-0.9 1.3l1.1 5c0 0-4-0.6-0.7 2.7 1.7 1.7 5.4 15.5 5.1 16-0.8 1.3 4.5 0 4.5 0l1.1-9.3c0-0.1 1.8-0.2 2.3-0.4 0.1-0.1 0.2-0.2 0.2-0.4-1.6-9.9 5.5-8.6 12.9-8.9 18.6-0.6 17.3 18.7 17.3 18.7h77.6c0 0-1-19.5 17.5-19.3 15.9 0.1 16.4 19.4 16.4 19.4 0 0 7.3 0.7 10.8-5.5 3.4-6.2 2.5-10.6 2.5-10.6l-0.1-3.9c-0.1-1.4-1.2-2.4-2.5-2.5 0 0 1.3-9.9-0.7-11.6-2.1-1.7-13.3-12-13.3-12l0.5-0.3c0.9-0.6 0.7-1.9-0.2-2.3-4.3-1.4-12.8-4.4-14.7-5.1-0.3-0.1-0.6-0.1-0.9-0.1-1.2-0.1-4.6-0.3-10.7-0.4-7.6-0.1-37.3 0-37.3 0 0 0-10.3 0.8-16 3.3-6 2.8-26.8 14.1-26.8 14.1z"/>
									</g>
								</g>
							</g>
							<g id="Layer">
								<g id="Layer">
									<g id="Layer">
										<g id="Layer">
											<path id="Layer" class="s2" d="m228.1 158.8q0 0 0-0.2c0-0.1 0-0.2 0-0.4 0-0.5 0-1.1 0-1.9q-0.1-2.5-0.3-7.1c0-3.1-0.1-6.8-0.3-11.1 0-1.1 0-2.2 0-3.3-0.1-0.6 0-1.2 0-1.7q0.1-0.5 0.2-0.9c0-0.3 0.1-0.6 0.1-0.9 0.3-1.1 0.7-2.3 1.2-3.5 0.6-1.1 1.2-2.2 2-3.3 4.2-2.6 8.7-5.5 13.5-8.4 1.2-0.8 2.4-1.5 3.6-2.4 1.2-0.8 2.6-1.5 3.9-2.1q2-1 4.2-1.7 1.1-0.3 2.1-0.6c0.8-0.2 1.5-0.4 2.3-0.6 2.9-0.6 5.8-1 8.6-1.1 2.9-0.1 5.7-0.1 8.4 0h0.1v0.1c-1.3 5.8-2.5 11.2-3.6 16.2-0.7 1.1-1.3 2.3-1.7 3.4-0.3 1.2-0.6 2.4-0.5 3.6q0.1 1.8 0.2 3.5c0 1.2 0 2.2 0 3.3 0.1 4.3 0.1 8 0.1 11.1q0 4.6 0 7.1 0 1.2 0 1.9 0 0.3 0 0.4 0 0.2 0 0.2 0 0 0-0.2c0-0.1 0-0.2 0-0.4q0-0.7 0-1.9c0-1.7 0-4.1 0-7.1-0.1-3.1-0.1-6.8-0.1-11.1-0.1-1.1-0.1-2.2-0.1-3.3q-0.1-1.7-0.2-3.5c-0.1-1.2 0.2-2.4 0.6-3.6 0.3-1.2 0.9-2.4 1.6-3.5 1.1-5 2.3-10.4 3.6-16.2v0.1q-4.1-0.3-8.4-0.1c-2.8 0.2-5.7 0.5-8.6 1.1q-1.1 0.3-2.2 0.6-1.1 0.3-2.2 0.7c-1.4 0.5-2.8 1-4.1 1.7-1.4 0.6-2.7 1.3-3.9 2.1q-1.8 1.1-3.6 2.3c-4.8 3-9.3 5.8-13.5 8.5q-1.2 1.5-1.9 3.2-0.9 1.8-1.2 3.5c-0.6 2.3-0.3 4.6-0.3 6.7 0.1 4.3 0.2 8 0.2 11.1q0.1 4.6 0.2 7.1c0 0.9 0 1.5 0 1.9q0 0.4 0 0.5c0 0.2 0 0.2 0 0.2z"/>
										</g>
									</g>
								</g>
							</g>
							<g id="Layer">
								<g id="Layer">
									<g id="Layer">
										<g id="Layer">
											<path id="Layer" class="s2" d="m277.5 108.1q0 0 0.1 0 0.1 0 0.4 0 0.5 0 1.4-0.1c1.3 0 3.1 0 5.4-0.1 4.6 0 10.9-0.1 18-0.3h0.1v0.1c0.8 1 1.7 2 2.6 3.1 2.5 3.2 4.9 6.1 7.2 8.8 0.2 0.4 0.5 0.7 0.8 1.1 0.2 0.3 0.5 0.7 0.7 1 0.3 0.8 0.5 1.6 0.5 2.4 0 0.8-0.2 1.5-0.4 2.2q-0.4 1-0.8 1.9c-1.1 2.5-1.9 4.4-2.5 5.8q-0.4 1-0.7 1.6-0.1 0.2-0.1 0.4-0.1 0.1-0.1 0.1 0 0 0-0.1 0.1-0.1 0.2-0.4 0.2-0.6 0.6-1.6c0.6-1.4 1.4-3.3 2.5-5.8 0.4-1.3 1.2-2.5 1.2-4.1 0-0.8-0.2-1.6-0.6-2.3q-0.2-0.6-0.6-1.1c-0.3-0.3-0.6-0.7-0.9-1-2.2-2.8-4.6-5.7-7.2-8.9q-1.3-1.6-2.5-3.1v0.1c-7.1 0.1-13.4 0.2-18 0.2-2.3 0.1-4.1 0.1-5.4 0.1q-0.9 0-1.4 0-0.3 0-0.4 0-0.1 0-0.1 0z"/>
										</g>
									</g>
								</g>
							</g>
							<g id="Layer">
								<g id="Layer">
									<g id="Layer">
										<g id="Layer">
											<path id="Layer" class="s2" d="m268.4 132.1q0 0 0.2 0c0.1-0.1 0.3-0.1 0.5-0.2 0.3-0.2 0.5-0.4 0.6-0.8q0.1-0.3 0.1-0.6 0-0.3-0.1-0.7c-0.3-0.4-0.7-0.7-1.3-0.7-0.5 0-1.2 0-1.8 0-1.3 0-2.7 0-4.2 0-0.3 0-0.7 0.1-0.9 0.4-0.3 0.2-0.5 0.5-0.5 0.9-0.1 0.3 0 0.6 0.2 0.9 0.1 0.3 0.4 0.5 0.6 0.6 0.3 0.1 0.6 0.1 0.9 0.1q0.5 0 0.9 0c0.6 0 1.1 0 1.6 0q1.5 0 2.3 0.1 0.4 0 0.7 0c0.1 0 0.2 0 0.2 0q0 0-0.2 0-0.3 0-0.7 0c-0.5 0-1.3 0-2.3 0.1-0.5 0-1 0-1.6 0q-0.4 0-0.9 0c-0.1 0-0.3 0-0.4 0q-0.3 0-0.5-0.2c-0.3-0.1-0.6-0.3-0.8-0.7-0.1-0.3-0.2-0.6-0.2-1q0.1-0.6 0.5-1c0.3-0.2 0.7-0.4 1.1-0.4q2.3 0 4.2 0 0.9 0 1.8 0c0.6 0 1.1 0.4 1.3 0.9 0.2 0.2 0.2 0.4 0.2 0.6 0 0.3 0 0.5-0.1 0.7-0.1 0.4-0.4 0.6-0.6 0.8q-0.4 0.2-0.6 0.2-0.2 0-0.2 0z"/>
										</g>
									</g>
								</g>
							</g>
							<g id="Layer">
								<g id="Layer">
									<g id="Layer">
										<g id="Layer">
											<path id="Layer" class="s2" d="m308.6 132.1q0 0 0.2 0c0.2-0.1 0.4-0.1 0.6-0.2 0.2-0.2 0.5-0.4 0.6-0.8q0.1-0.3 0.1-0.6 0-0.3-0.2-0.7c-0.2-0.4-0.7-0.7-1.2-0.7-0.6 0-1.2 0-1.9 0-1.3 0-2.7 0-4.2 0-0.3 0-0.6 0.1-0.9 0.4-0.3 0.2-0.4 0.5-0.5 0.9 0 0.3 0 0.6 0.2 0.9 0.2 0.3 0.4 0.5 0.7 0.6 0.3 0.1 0.6 0.1 0.9 0.1q0.4 0 0.9 0c0.5 0 1.1 0 1.6 0q1.4 0 2.3 0.1 0.3 0 0.6 0c0.1 0 0.2 0 0.2 0q0 0-0.2 0-0.3 0-0.6 0c-0.6 0-1.4 0-2.3 0.1-0.5 0-1.1 0-1.6 0q-0.5 0-0.9 0c-0.2 0-0.3 0-0.5 0q-0.3 0-0.5-0.2c-0.3-0.1-0.6-0.3-0.7-0.7-0.2-0.3-0.2-0.6-0.2-1q0-0.6 0.5-1c0.3-0.2 0.6-0.4 1-0.4q2.3 0 4.2 0 1 0 1.9 0c0.6 0 1.1 0.4 1.3 0.9 0.1 0.2 0.2 0.4 0.2 0.6 0 0.3 0 0.5-0.1 0.7-0.2 0.4-0.4 0.6-0.7 0.8q-0.4 0.2-0.6 0.2-0.2 0-0.2 0z"/>
										</g>
									</g>
								</g>
							</g>
							<g id="Layer">
								<g id="Layer">
									<g id="Layer">
										<path id="Layer" class="s6" d="m343.9 125.5h-8c-1.1 0-2.2 0.6-2.7 1.6-0.4 0.8-0.5 1.8-0.1 2.6l3.2 7.2 8.1-0.1c0 0 1.7-9.1-0.5-11.3z"/>
									</g>
								</g>
							</g>
							<g id="Layer">
								<g id="Layer">
									<g id="Layer">
										<path id="Layer" class="s2" d="m232.1 124.5l41.5-0.8 27.1-0.5 8.9-5.1c0.7-0.5 0.9-1.4 0.4-2.1l-5.5-7.3c-0.6-0.8-1.5-1.2-2.5-1.2l-30.2-0.3c0 0-11.4-0.6-20.4 4.4-9.5 5.3-19.3 12.9-19.3 12.9z"/>
									</g>
								</g>
							</g>
							<g id="Layer">
								<g id="Layer">
									<g id="Layer">
										<path id="Layer" class="s4" d="m251.1 108.1c0 0 2.1 0.9 0.7 1.8-1.3 0.9-22.4 14.1-22.4 14.1l-4.8-2.1c8.6-4.8 17.2-9.5 26.5-13.8z"/>
									</g>
								</g>
							</g>
							<g id="Layer">
								<g id="Layer">
									<g id="Layer">
										<g id="Layer">
											<path id="Layer" class="s2" d="m347.1 143c0 0-2.7 0.1-6.2 0.1-3.4 0-6.1-0.1-6.1-0.1 0 0 2.7-0.1 6.1-0.1 3.5 0 6.2 0.1 6.2 0.1z"/>
										</g>
									</g>
								</g>
							</g>
							<g id="Layer">
								<g id="Layer">
									<g id="Layer">
										<g id="Layer">
											<path id="Layer" class="s2" d="m300.2 154.4c0 0.1-17.3 0.1-38.8 0.1-21.5 0-38.9 0-38.9-0.1 0 0 17.4 0 38.9 0 21.5 0 38.8 0 38.8 0z"/>
										</g>
									</g>
								</g>
							</g>
							<g id="Layer">
								<g id="Layer">
									<g id="Layer">
										<path id="Layer" class="s4" d="m330.7 112.8c0 0-1.8 2.1-1.1 3.6 0.8 1.6 8.3 6.9 8.3 6.9l5.5 1z"/>
									</g>
								</g>
							</g>
							<g id="Layer">
								<g id="Layer">
									<g id="Layer">
										<path id="Layer" class="s4" d="m278.7 109.1l-1.2 13.3 22-0.6 8.9-5.2-5.8-7.5z"/>
									</g>
								</g>
							</g>
							<g id="Layer">
								<g id="Layer">
									<g id="Layer">
										<path id="Layer" class="s4" d="m237.3 123.1c0 0 13.3-9.6 18.5-11.5 5.1-1.8 7.7-2.3 12.5-2.4 4.5-0.2 7.3 0 7.3 0l-3.5 13.5z"/>
									</g>
								</g>
							</g>
							<g id="Layer">
								<g id="Layer">
									<g id="Layer">
										<g id="Layer">
											<path id="Layer" class="s1" d="m235.4 123.1c0-0.8 0.4-1.6 1.2-2l3-1.7c0.8-0.5 1.8-0.7 2.9-0.7q0.9-0.1 1.7 0.3c1.4 0.4 2.2 1.6 2.3 3 0.1 1.9-1.5 3.5-3.4 3.5h-5.4c-1.3 0-2.3-1.1-2.3-2.4z"/>
										</g>
									</g>
								</g>
								<g id="Layer">
									<g id="Layer">
										<g id="Layer">
											<g id="Layer">
												<path id="Layer" class="s2" d="m235.4 123.1q0 0 0 0.3c0 0.2 0.1 0.5 0.3 0.9 0.1 0.3 0.4 0.6 0.9 0.9 0.2 0.1 0.5 0.2 0.8 0.2 0.3 0.1 0.6 0 0.9 0 1.3 0 2.9 0 4.7 0 0.4 0 0.8 0 1.2-0.2 0.5-0.1 0.9-0.4 1.2-0.7q0.5-0.5 0.8-1.2 0.2-0.7 0.2-1.4c-0.1-1-0.6-2-1.4-2.5q-0.6-0.4-1.3-0.5c-0.4-0.1-0.9-0.2-1.3-0.2-0.8 0-1.7 0.3-2.4 0.6q-0.5 0.2-1 0.5-0.4 0.2-0.9 0.5c-0.6 0.3-1.1 0.6-1.5 0.8-0.5 0.3-0.8 0.6-1 1q-0.2 0.5-0.2 0.8 0 0.2 0 0.2 0 0.1 0-0.3 0-0.3 0.2-0.8 0.3-0.5 1-1 0.7-0.3 1.5-0.8 0.4-0.3 0.9-0.6c0.3-0.1 0.6-0.3 1-0.5q1.1-0.5 2.4-0.6 0.7 0 1.4 0.2 0.7 0.1 1.3 0.6c0.8 0.5 1.4 1.4 1.5 2.5q0 0.8-0.3 1.5c-0.1 0.4-0.4 0.9-0.8 1.2-0.3 0.3-0.7 0.6-1.2 0.8-0.4 0.1-0.9 0.2-1.3 0.2-1.7 0-3.3 0-4.6 0q-0.5 0-1-0.1-0.4 0-0.8-0.2c-0.5-0.3-0.8-0.6-0.9-1-0.2-0.3-0.3-0.6-0.3-0.8-0.1-0.1 0-0.3 0-0.3z"/>
											</g>
										</g>
									</g>
								</g>
							</g>
							<g id="Layer">
								<g id="Layer">
									<g id="Layer">
										<g id="Layer">
											<path id="Layer" class="s5" d="m271.5 124.5q0 0-0.1 0c0 0-0.1 0-0.2 0q-0.2 0-0.7 0c-0.6 0-1.5 0.1-2.6 0.1-2.2 0-5.2 0.1-8.6 0.2-3.4 0-6.4 0.1-8.6 0.1-1.2 0-2.1 0-2.7 0q-0.4 0-0.7 0-0.1 0-0.1 0-0.1 0-0.1 0 0 0 0.1 0c0 0 0.1 0 0.1 0q0.3 0 0.7 0c0.7 0 1.6 0 2.7 0 2.2-0.1 5.2-0.1 8.6-0.2 3.4-0.1 6.4-0.2 8.6-0.2 1.1 0 2 0 2.6 0q0.5 0 0.7 0 0.2 0 0.2 0 0.1 0 0.1 0z"/>
										</g>
									</g>
								</g>
							</g>
							<g id="Layer">
								<g id="Layer">
									<g id="Layer">
										<g id="Layer">
											<path id="Layer" class="s5" d="m267.9 128.6c0 0.1-1.1 0.1-2.4 0.1-1.3 0-2.4 0-2.4-0.1 0 0 1.1-0.1 2.4-0.1 1.3 0 2.4 0.1 2.4 0.1z"/>
										</g>
									</g>
								</g>
							</g>
							<g id="Layer">
								<g id="Layer">
									<g id="Layer">
										<g id="Layer">
											<path id="Layer" class="s5" d="m300.8 113.5c0 0.1-3 1.3-6.7 2.8-3.6 1.5-6.6 2.6-6.6 2.6 0-0.1 2.9-1.3 6.6-2.8 3.7-1.4 6.7-2.6 6.7-2.6z"/>
										</g>
									</g>
								</g>
							</g>
							<g id="Layer">
								<g id="Layer">
									<g id="Layer">
										<g id="Layer">
											<path id="Layer" class="s5" d="m294.8 114.5c0 0-2.8 1.3-6.3 2.7-3.5 1.5-6.3 2.7-6.4 2.7 0 0 2.9-1.3 6.3-2.8 3.5-1.5 6.4-2.7 6.4-2.6z"/>
										</g>
									</g>
								</g>
							</g>
							<g id="Layer">
								<g id="Layer">
									<g id="Layer">
										<g id="Layer">
											<path id="Layer" class="s5" d="m301.4 124.5c0 0.1-5.9 0.1-13.2 0.1-7.3 0.1-13.2 0.1-13.2 0 0 0 5.9 0 13.2-0.1 7.3 0 13.2 0 13.2 0z"/>
										</g>
									</g>
								</g>
							</g>
							<g id="Layer">
								<g id="Layer">
									<g id="Layer">
										<g id="Layer">
											<path id="Layer" class="s5" d="m307.8 128.4c0 0-1.6 0.1-3.6 0.1-2.1 0-3.7 0-3.7-0.1 0 0 1.7 0 3.7 0 2-0.1 3.6 0 3.6 0z"/>
										</g>
									</g>
								</g>
							</g>
							<g id="Layer">
								<g id="Layer">
									<g id="Layer">
										<g id="Layer">
											<path id="Layer" class="s5" d="m243.8 119.9q0 0-0.3-0.2c-0.2-0.1-0.4-0.3-0.9-0.4q-0.6-0.1-1.4 0.2-0.9 0.2-1.7 0.6c-1.2 0.5-2.2 1.2-2.8 1.7-0.7 0.6-1 1-1 1 0 0 0-0.2 0.2-0.3 0.1-0.2 0.4-0.5 0.7-0.8 0.6-0.5 1.6-1.2 2.8-1.8q0.9-0.4 1.7-0.6c0.6-0.1 1.1-0.2 1.5-0.1 0.5 0.1 0.7 0.3 1 0.4q0.1 0.2 0.1 0.3 0.1 0 0.1 0z"/>
										</g>
									</g>
								</g>
							</g>
						</g>
					</g>
					<g id="Layer">
						<g id="Layer">
							<path id="Layer" class="s2" d="m333.2 144.8c0 0-0.1 0-0.2-0.3-0.2-0.2-0.4-0.6-0.8-0.9-0.6-0.9-1.5-2-3-3.2-1.4-1.1-3.2-2.3-5.5-3-2.2-0.8-4.9-1.2-7.7-1.2-1.3 0-2.7 0.1-4 0.4-1.3 0.3-2.4 0.7-3.6 1.1-2.2 1-3.9 2.3-5.3 3.5-1.3 1.2-2.1 2.5-2.6 3.3-0.3 0.5-0.5 0.9-0.6 1.1-0.1 0.2-0.2 0.3-0.2 0.3q0 0 0.2-0.4c0.1-0.2 0.2-0.6 0.5-1 0.5-0.9 1.3-2.2 2.6-3.5 1.3-1.2 3.1-2.6 5.4-3.5q1.6-0.8 3.6-1.2 1.9-0.4 4-0.4c2.8 0 5.5 0.4 7.8 1.2 2.3 0.8 4.2 2 5.5 3.2 1.4 1.2 2.4 2.3 3 3.1q0.4 0.6 0.7 1 0.3 0.4 0.2 0.4z"/>
						</g>
					</g>
					<g id="Layer">
						<g id="Layer">
							<path id="Layer" class="s2" d="m223.2 145q0 0-0.4-0.3-0.3-0.3-0.9-0.7c-0.8-0.7-2-1.6-3.5-2.7-0.7-0.6-1.4-1.2-2.3-1.9-0.9-0.6-1.8-1.3-2.9-1.9-1.1-0.5-2.4-0.8-3.7-1-1.3-0.1-2.7-0.2-4.1-0.2-1.4 0-2.7 0.3-4 0.8-1.2 0.5-2.3 1.1-3.4 1.8-2.1 1.2-3.8 2.6-5.3 3.7q-2.2 1.7-3.6 2.5c-0.4 0.3-0.8 0.5-1 0.6q-0.4 0.2-0.4 0.2 0 0 0.3-0.3 0.4-0.1 1.1-0.6c0.8-0.5 2-1.4 3.5-2.6 1.5-1.1 3.3-2.4 5.3-3.8 1.1-0.6 2.2-1.2 3.5-1.7 1.2-0.5 2.6-0.9 4-0.8 1.4 0 2.8 0 4.2 0.2 1.3 0.2 2.6 0.5 3.7 1 1.1 0.6 2 1.3 2.9 1.9q1.3 1.1 2.3 2 2.2 1.7 3.5 2.7 0.5 0.5 0.9 0.8 0.3 0.3 0.3 0.3z"/>
						</g>
					</g>
					<g id="Layer">
						<path id="Layer" class="s2" d="m333.5 127.5c-0.7-0.7-16.4-16.4-17.2-17.8-0.8-1.4-0.9-4.3-0.9-4.4l0.4-0.1c0 0.1 0.2 2.9 0.9 4.3 0.6 1 11.4 12 17.1 17.6z"/>
					</g>
					<g id="Layer" style="opacity: .4">
						<path id="Layer" class="s3" d="m227 123.5c0 0-22.9 3.7-25.7 4.2-2.9 0.5-19.5 3.9-20 4.2 0 0 1.1-1.3 1.9-1.8 2.3-1.4 5.9-2.4 5.9-2.4 0 0 9.8-2.3 13.2-2.9 1.2-0.2 9.4-1.1 11.2-1.1 0.3-0.1 8-0.9 9.3-1.1 1.5-0.2 4.2 0.9 4.2 0.9z"/>
					</g>
					<g id="Layer">
						<path id="Layer" class="s2" d="m212.9 121.6c-0.2 0-4.1 2-4.1 2l-3.5 3.4c0 0-1.7 0.3-1.8 0.3 0 0.1 4.9-4.5 4.9-4.5l3.2-1.4z"/>
					</g>
					<g id="Layer">
						<path id="Layer" class="s2" d="m214.8 125.5l3.8-2.2 4.7-1.9c0.3-0.1 0.6-0.1 0.8 0.1l2.9 2-2.1 0.3-1.1-0.9q-0.4-0.3-0.8-0.2l-5.3 2.3z"/>
					</g>
					<g id="Layer">
						<path id="Layer" class="s2" d="m201.3 127.7c0 0-1.6-1.3-2.4-1.2-0.7 0.1-5.7 1.3-5.9 1.6-0.2 0.4-0.5 1-0.5 1 0 0-4.1 0.4-4.2 1-0.1 0.6 0 0.4 0 0.4z"/>
					</g>
					<g id="Layer">
						<g id="Layer">
							<g id="Layer">
								<path id="Layer" class="s1" d="m207.3 120c0.3 0.2 7.7 2.7 8.1 2.6 0.4-0.1 11.6-1 11.6-1l-22.3-2.4h-11.8l-9.2 7.3c0 0 1.8 1.1 2.4 1.1 0.5 0.1 4.2-1.5 4.2-1.5l2.1-2.7 2.2-1.8 2.6-1.7 3.5 0.9 2.4-0.1z"/>
							</g>
							<g id="Layer" style="opacity: .4">
								<path id="Layer" class="s3" d="m207.3 120c0.3 0.2 7.7 2.7 8.1 2.6 0.4-0.1 11.6-1 11.6-1l-22.3-2.4h-11.8l-9.2 7.3c0 0 1.8 1.1 2.4 1.1 0.5 0.1 4.2-1.5 4.2-1.5l2.1-2.7 2.2-1.8 2.6-1.7 3.5 0.9 2.4-0.1z"/>
							</g>
							<g id="Layer">
								<path id="Layer" class="s1" d="m227 121.6l-10.7-0.2-8.9-1.8-6.1-0.1h-8.3l-5.9 5.8-3.4 1.2-0.1-0.5c1.2-1.6 7.9-6.9 8.6-7.6 0.8-0.6 6.6-2.6 7.3-2.6 0.7 0 21.1 3.2 21.1 3.2z"/>
							</g>
						</g>
						<g id="Layer">
							<g id="Layer">
								<path id="Layer" class="s2" d="m227 121.6q0 0-0.2 0-0.2 0-0.6 0c-0.5 0-1.3 0-2.2-0.1-1.9-0.1-4.6-0.2-7.9-0.3-2.5-0.5-5.5-1.2-8.6-1.9-1.1 0-2.2 0-3.4 0q-3.1-0.1-6-0.2c-0.9 0-1.9 0-2.8 0q-0.7 0-1.3 0-0.3 0-0.6 0h-0.3q-0.1 0-0.1 0-0.1 0-0.2 0c-0.6 0.5-1.2 1.1-1.7 1.6q-0.9 0.9-1.6 1.6c-0.9 1-1.8 1.8-2.5 2.5-1.1 0.3-1.9 0.6-2.5 0.9q-0.3 0.1-0.6 0.3c-0.1 0-0.2 0-0.2 0q0 0 0.2-0.1 0.2-0.1 0.6-0.3c0.5-0.2 1.4-0.6 2.5-0.8h-0.1c0.7-0.8 1.6-1.7 2.5-2.6q0.7-0.8 1.5-1.6c0.3-0.3 0.6-0.6 0.9-0.8 0.3-0.3 0.6-0.6 0.9-0.9 0.1 0 0.2 0 0.2 0 0.1 0 0.1 0 0.2 0h0.3q0.3 0 0.7 0c0.4 0 0.9 0 1.3 0q1.3 0 2.8 0 2.9 0.1 5.9 0.1c1.2 0 2.3 0 3.5 0.1 3.1 0.7 6.1 1.3 8.6 1.9 3.3 0.2 6 0.3 7.9 0.4q1.4 0.1 2.2 0.2c0.2 0 0.4 0 0.5 0q0.2 0 0.2 0z"/>
							</g>
						</g>
						<g id="Layer">
							<g id="Layer">
								<path id="Layer" class="s2" d="m208.2 117.3c0.1 0.1 0 0.5-0.3 1-0.2 0.5-0.3 1-0.4 0.9-0.1 0 0-0.5 0.2-1 0.2-0.5 0.5-0.9 0.5-0.9z"/>
							</g>
						</g>
						<g id="Layer">
							<g id="Layer">
								<path id="Layer" class="s2" d="m192.3 118.4c0-0.1 0.1 0.1 0.3 0.3 0.1 0.1 0.2 0.3 0.1 0.3 0 0.1-0.2 0-0.3-0.2-0.1-0.2-0.2-0.4-0.1-0.4z"/>
							</g>
						</g>
						<g id="Layer" style="opacity: .3">
							<path id="Layer" class="s3" d="m195.3 119l1.7-0.7 2.6-1.9-1.7 1.9 1.9 0.5 4.3 0.4z"/>
						</g>
					</g>
					<g id="Layer">
						<path id="Layer" class="s2" d="m205.9 126.9l1.2-0.8 2.4-0.3 1.3-1 3.8-0.4 0.7 0.6 0.3 0.4z"/>
					</g>
					<g id="Layer">
						<g id="Layer">
							<path id="Layer" class="s2" d="m225.6 123.8q0 0-0.1 0.1c0 0-0.1 0-0.3 0q-0.4 0.1-1.2 0.2c-1.1 0.2-2.6 0.5-4.5 0.8-3.8 0.6-9 1.5-14.8 2.4-3 0.5-5.7 1.1-8.2 1.5-2.5 0.5-4.7 1-6.7 1.3-1.8 0.4-3.4 0.7-4.5 0.9q-0.7 0.1-1.2 0.2c-0.1 0-0.2 0.1-0.3 0.1q-0.1 0-0.1 0 0 0 0.1-0.1 0.1 0 0.3-0.1 0.4 0 1.2-0.2c1-0.2 2.6-0.6 4.4-1 1.9-0.4 4.2-0.8 6.7-1.3 2.5-0.5 5.2-1.1 8.1-1.5 5.8-1 11.1-1.8 14.9-2.4 1.9-0.3 3.4-0.5 4.6-0.7q0.7-0.1 1.2-0.2c0.1 0 0.2 0 0.3 0q0.1 0 0.1 0z"/>
						</g>
					</g>
					<g id="Layer" style="opacity: .3">
						<path id="Layer" class="s3" d="m180.6 143.7c0 0 0.9 0.3 1.5 0.9 0.5 0.7 1.8 2.9 1.8 2.9l3.8-2.3-2.1 2.3-0.3 1.8-0.5 0.7 2.9 1.9c0 0-3.4-0.3-3.7-0.4-0.3 0-2.8-4.7-2.8-4.7l-0.3-3.1"/>
					</g>
					<g id="Layer">
						<g id="Layer">
							<g id="Layer">
								<path id="Layer" class="s1" d="m170.1 146c0-0.1 0-0.2 0.1-0.2 1.1-0.4 8.1-2.9 9.8-2.4 1.8 0.5 3 5.8 5 7.3 2 1.5 7.4 2.1 7.3 2.6-0.4 1.2-1.9 8.4-3.7 9.1-1.8 0.8-6-0.3-6-0.3l-12.6-15.7z"/>
							</g>
							<g id="Layer">
								<g id="Layer">
									<path id="Layer" class="s2" d="m170.1 146q0 0 0 0.1 0 0.1-0.1 0.2c1.1 1.3 6.1 7.4 12.7 15.7 0.9 0.2 1.7 0.4 2.6 0.4 0.5 0.1 0.9 0.1 1.4 0.1 0.5 0 1 0 1.4-0.1 0.1 0 0.2 0 0.3 0q0.2-0.1 0.3-0.2 0.3-0.2 0.5-0.4c0.3-0.4 0.5-0.9 0.8-1.3 0.4-0.9 0.7-1.8 1-2.8 0.3-1 0.6-2.1 0.8-3.1q0.2-0.4 0.2-0.8l0.1-0.4v-0.2q0 0 0 0c-0.2-0.2-0.5-0.2-0.7-0.3-0.2-0.1-0.5-0.1-0.8-0.2-1-0.3-2-0.5-2.9-0.8-0.9-0.3-1.9-0.6-2.7-1.2-0.8-0.6-1.3-1.4-1.7-2.2q-0.6-1.2-1.2-2.3c-0.4-0.8-0.8-1.5-1.2-2.1-0.3-0.3-0.5-0.6-0.9-0.7-0.3-0.1-0.7-0.1-1.1-0.1-0.7 0.1-1.3 0.3-2 0.4q-0.9 0.2-1.8 0.5-1.6 0.4-2.8 0.8c-0.7 0.3-1.3 0.4-1.7 0.6-0.2 0.1-0.4 0.1-0.5 0.2 0 0.1 0 0.2 0 0.2 0 0 0-0.1 0-0.2 0.1-0.1 0.3-0.1 0.4-0.2 0.4-0.2 1-0.3 1.8-0.6q1.1-0.4 2.8-0.9 0.8-0.3 1.8-0.5 1-0.3 2-0.4 0.6-0.1 1.2 0.1c0.4 0.1 0.7 0.4 0.9 0.7 0.5 0.6 0.9 1.4 1.3 2.1q0.6 1.2 1.2 2.4c0.4 0.7 1 1.5 1.7 2.1 0.7 0.5 1.7 0.9 2.6 1.2 1 0.3 1.9 0.5 3 0.7q0.4 0.1 0.7 0.2c0.3 0.1 0.6 0.2 0.8 0.3q0.1 0 0.1 0.2 0 0 0 0.1 0 0 0 0v0.2l-0.1 0.4c-0.1 0.2-0.2 0.5-0.2 0.8q-0.4 1.5-0.9 3.1-0.4 1.5-1 2.8c-0.2 0.5-0.4 0.9-0.8 1.3q-0.2 0.3-0.5 0.5-0.2 0.2-0.3 0.2-0.3 0-0.4 0c-0.5 0.1-1 0.2-1.4 0.1q-0.7 0-1.5-0.1-1.3-0.1-2.6-0.5h-0.1c-6.6-8.3-11.5-14.4-12.5-15.8 0-0.1 0-0.2 0-0.3 0 0 0 0 0 0z"/>
								</g>
							</g>
						</g>
						<g id="Layer">
							<g id="Layer">
								<path id="Layer" class="s2" d="m170 146.4q0 0 0.3-0.1c0.2-0.1 0.4-0.1 0.7-0.2 0.7-0.2 1.6-0.5 2.8-0.8 1.1-0.3 2.5-0.7 4-1.1 0.4-0.1 0.8-0.3 1.3-0.2 0.4 0 0.9 0.2 1.2 0.6 0.3 0.4 0.5 0.8 0.7 1.2 0.2 0.4 0.4 0.8 0.6 1.2 0.4 0.8 0.8 1.6 1.2 2.4 0.5 0.7 1.1 1.3 1.7 1.8 1.2 0.9 2.6 1.4 3.8 1.7 1.1 0.3 2.1 0.5 2.7 0.7 0.4 0 0.6 0.1 0.8 0.2q0.2 0 0.2 0.1 0 0-0.2-0.1c-0.3 0-0.5-0.1-0.8-0.2-0.7-0.1-1.6-0.3-2.8-0.6-1.1-0.3-2.6-0.6-3.9-1.6-0.7-0.5-1.3-1.1-1.7-1.9-0.5-0.7-0.9-1.5-1.3-2.4-0.2-0.4-0.4-0.8-0.6-1.2-0.2-0.4-0.3-0.8-0.6-1.1-0.3-0.3-0.7-0.5-1.1-0.6-0.4 0-0.7 0.1-1.1 0.2q-2.3 0.6-4.1 1.1c-1.1 0.3-2.1 0.5-2.8 0.7q-0.5 0.1-0.7 0.1-0.3 0.1-0.3 0.1z"/>
							</g>
						</g>
					</g>
					<g id="Layer" style="opacity: .2">
						<path id="Layer" class="s3" d="m216 133.3c0 0 0.6-1.8 3.5-2l0.9-0.5 8.8-0.1-3.8 4-4.1 2.2 3.9 9.9-10.6-8.9z"/>
					</g>
					<g id="Layer" style="opacity: .2">
						<path id="Layer" class="s3" d="m208.5 127.8c-0.1 0.3-0.3 5.1 0.8 5.9 1.1 0.9 1.4 2.4 1.4 2.4 0 0-5.2-3.5-4.6-5.4 0.5-2 2.4-2.9 2.4-2.9z"/>
					</g>
					<g id="Layer" style="opacity: .2">
						<path id="Layer" class="s3" d="m189.1 145.1l3-5.3c0.4-0.7 1.1-1.2 1.9-1.5 1.5-0.5 3.9-1.4 3.9-2 0-1-2.7-5.6-2.7-5.6l2.1 1c0 0 0.7 0 2.9 2.7 1.1 1.4 1.1 2.7 1.1 2.7 0 0-6.6 3.6-12.2 8z"/>
					</g>
					<g id="Layer" style="opacity: .2">
						<path id="Layer" class="s3" d="m179.5 140.6c0 0 0.4 1.2 0.2 1.2-0.2 0.1-0.5 0.5-0.5 0.5l4.4 0.1-4.3 0.9-1-1.4-0.3-1.2z"/>
					</g>
					<g id="Layer">
						<g id="Layer">
							<path id="Layer" class="s2" d="m179.4 132.6c0 0 1.5-0.3 1.8-0.1 0.4 0.3 0.6 0.8 0.6 1.1 0 0.3 1 5 0.9 5.3-0.3 0.3-0.8 0.5-0.8 0.5l-0.1 1.3-2.9-0.1c0 0-1.2-1.1-1.2-1.6-0.1-0.4 1.7-6.4 1.7-6.4z"/>
						</g>
						<g id="Layer">
							<path id="Layer" class="s1" d="m177 140.5c0 0 1.7-5.6 1.8-5.7 0 0-0.2-1.2-0.2-1.2l-3.5 4.5 0.1 0.9 0.8 1.7z"/>
						</g>
						<g id="Layer" style="opacity: .3">
							<path id="Layer" class="s3" d="m177 140.5c0 0 1.7-5.6 1.8-5.7 0 0-0.2-1.2-0.2-1.2l-3.5 4.5 0.1 0.9 0.8 1.7z"/>
						</g>
						<g id="Layer">
							<g id="Layer">
								<path id="Layer" class="s1" d="m178.1 133.5c0 0-3.2 4.1-3.3 4.8 0 0.5 0.6 2.3 0.8 3.1 0.1 0.2 0.3 0.4 0.5 0.4l2.7 0.1c0.3 0 0.5-0.3 0.4-0.5l-0.9-2.5-0.3-0.1c0 0-2.1 0.1-2.3 0.1-0.2 0-0.4-0.4-0.3-0.6 0.2-0.3 3.2-4.7 3.2-4.7z"/>
							</g>
							<g id="Layer">
								<g id="Layer">
									<path id="Layer" class="s2" d="m178.1 133.5c0 0 0.1 0 0.4 0.1h0.1-0.1c-0.3 0.5-0.9 1.4-1.7 2.7q-0.3 0.4-0.7 1-0.2 0.2-0.3 0.5c-0.1 0.1-0.1 0.2-0.2 0.3l-0.1 0.2q-0.1 0-0.1 0.1c0 0.1 0.1 0.4 0.3 0.4q0.3 0 0.7 0c0.5-0.1 1-0.1 1.6-0.1q0.2 0.1 0.3 0.1v0.1q0.3 0.7 0.6 1.4 0.1 0.4 0.3 0.8l0.1 0.2c0 0.1 0.1 0.1 0.1 0.2 0 0.1-0.1 0.3-0.2 0.4-0.2 0.1-0.3 0.1-0.4 0.1h-0.4q-0.3 0-0.6 0c-0.4 0-0.9-0.1-1.3-0.1h-0.2c-0.1 0-0.3 0-0.4-0.1q-0.2 0-0.2-0.2c-0.1-0.1-0.1-0.1-0.1-0.2l-0.1-0.1c-0.1-0.4-0.2-0.8-0.3-1.1-0.1-0.4-0.2-0.7-0.3-1.1q-0.1-0.2-0.1-0.5 0-0.1 0-0.3c0-0.1 0-0.2 0.1-0.3 0.3-0.6 0.7-1.1 1-1.5q1-1.4 1.6-2.2c0.2-0.2 0.4-0.4 0.5-0.6 0-0.2 0.1-0.2 0.1-0.2q0 0-0.1 0.2c-0.2 0.2-0.3 0.3-0.5 0.6-0.4 0.5-0.9 1.3-1.5 2.2-0.3 0.5-0.7 1-1 1.6-0.1 0.1-0.1 0.1-0.1 0.2q0 0.1 0 0.3 0 0.2 0.1 0.5 0.1 0.5 0.3 1 0.1 0.6 0.4 1.2c0 0 0 0.1 0 0.2q0.1 0.1 0.2 0.2c0.1 0.1 0.4 0 0.6 0 0.4 0 0.8 0.1 1.2 0.1q0.3 0 0.6 0c0.3 0 0.5 0 0.6 0q0.1-0.1 0.1-0.3c0 0 0 0 0-0.1v-0.1l-0.1-0.1q-0.1-0.4-0.3-0.8c-0.2-0.5-0.4-1-0.6-1.5l0.1 0.1q-0.1 0-0.2-0.1c-0.5 0-1.1 0-1.6 0.1q-0.3 0-0.7 0-0.1 0-0.2-0.1 0 0 0 0c-0.1-0.1-0.1-0.2-0.2-0.2-0.1-0.1-0.1-0.3 0-0.4q0.1-0.2 0.1-0.2l0.1-0.1q0.1-0.2 0.1-0.3c0.2-0.2 0.3-0.4 0.4-0.6q0.4-0.5 0.7-1c0.8-1.2 1.5-2.2 1.8-2.6v0.1c-0.1-0.1-0.3-0.1-0.3-0.1z"/>
								</g>
							</g>
						</g>
						<g id="Layer">
							<path id="Layer" class="s6" d="m181 133.6c0 0 0.2 5.1-0.3 5.2-0.5 0.1-3.6-0.3-3.5-0.7 0-0.4 1.3-4.5 1.7-4.8 0.1-0.1 2.1 0.3 2.1 0.3z"/>
						</g>
					</g>
				</g>
				<g id="Layer">
					<g id="Layer">
						<path id="Layer" class="s2" d="m188.9 153.5c0 0-0.3 0.6-0.8 1.5-0.3 0.4-0.6 1-0.9 1.5q-0.3 0.5-0.6 1c-0.2 0.3-0.5 0.6-1 0.7-0.3 0.2-0.8 0.2-1.1 0.2q-0.6 0-1.1 0-1 0-1.9 0c-1 0-1.7-0.1-1.7-0.1 0-0.1 0.7-0.1 1.7-0.1 0.6 0 1.2 0 1.9 0 0.3 0 0.7 0 1.1 0 0.3 0 0.7 0 1.1-0.2 0.3-0.1 0.6-0.3 0.8-0.6 0.2-0.3 0.4-0.6 0.6-0.9 0.3-0.6 0.7-1.1 0.9-1.6 0.6-0.9 1-1.4 1-1.4z"/>
					</g>
				</g>
			</g>
			<path id="Layer" class="s7" d="m228.8 119.6l-1 1.7 3.9-1.9-0.1 2.9 2.7-3.1 6-4.1 6.2-2.3h-2.7l6.5-4-9.4 4.3z"/>
		</g>
	</g>
</svg>