<?xml version="1.0" encoding="utf-8"?>
<!-- Generator: Adobe Illustrator 24.0.2, SVG Export Plug-In . SVG Version: 6.00 Build 0)  -->
<svg version="1.1" id="Camada_1" xmlns="http://www.w3.org/2000/svg" xmlns:xlink="http://www.w3.org/1999/xlink" x="0px" y="0px"
	 viewBox="0 0 1125 2436" style="enable-background:new 0 0 1125 2436;" xml:space="preserve">
<style type="text/css">
	.st0{fill:url(#SVGID_1_);}
	.st1{fill:#84BDFF;}
</style>
<linearGradient id="SVGID_1_" gradientUnits="userSpaceOnUse" x1="133.6739" y1="1218.3043" x2="990.6739" y2="1218.3043">
	<stop  offset="0" style="stop-color:#3F30D4"/>
	<stop  offset="6.989667e-02" style="stop-color:#574AD9"/>
	<stop  offset="0.2936" style="stop-color:#9E97E9"/>
	<stop  offset="0.4784" style="stop-color:#D2CFF5"/>
	<stop  offset="0.615" style="stop-color:#F3F2FC"/>
	<stop  offset="0.6884" style="stop-color:#FFFFFF"/>
</linearGradient>
<path class="st0" d="M957.9,1569.8l-32.8-0.4c-21.3-0.3-42.7-0.3-64-0.3c0-3.1,0-9.6,0-17.1c0-16.4,0-37.3,0-37.3
	c-0.3-18.5-16.8-25.4-37.6-27.7h-9.9H775h-28.3h0h-435c-16.8,0-30.5-10.2-30.5-22.7v-5.3v-55V892.2c0-15.3-15.9-27.7-35.5-27.7h-112
	h-0.1v5h0.1h112c16.8,0,30.5,10.2,30.5,22.7V1404v55v5.3c0,1,0.1,2,0.2,3c1.9,13.9,17,24.7,35.3,24.7h435h0h67h12
	c16.8,0,30.5,10.2,30.5,22.7v54.5c-20.7,0-41.3,0.1-62,0.3l-32.8,0.4c-10.9,0.2-21.8,0.4-32.8,0.7c10.9,0.3,21.8,0.5,32.8,0.7
	l32.8,0.4c21.8,0.3,43.7,0.3,65.5,0.4c21.8,0,43.7-0.1,65.5-0.3l32.8-0.4c10.9-0.2,21.8-0.4,32.8-0.7
	C979.8,1570.2,968.8,1570.1,957.9,1569.8z"/>
<circle class="st1" cx="278.7" cy="968.1" r="16"/>
<circle class="st1" cx="278.7" cy="1156.1" r="16"/>
<circle class="st1" cx="278.7" cy="1344.1" r="16"/>
</svg>
