<?xml version="1.0" encoding="utf-8"?>
<!-- Generator: Adobe Illustrator 24.0.2, SVG Export Plug-In . SVG Version: 6.00 Build 0)  -->
<svg version="1.1" id="Camada_1" xmlns="http://www.w3.org/2000/svg" xmlns:xlink="http://www.w3.org/1999/xlink" x="0px" y="0px"
	 viewBox="0 0 1080 1080" style="enable-background:new 0 0 1080 1080;" xml:space="preserve">
<style type="text/css">
	.st0{fill:none;}
	.st1{fill:#006CFF;}
	.st2{fill:#FFFFFF;}
	.st3{fill:#3B28CC;}
	.st4{fill:#87BFFF;}
	.st5{font-family:'AvenirNext-Regular';}
	.st6{font-size:15px;}
	.st7{font-family:'Montserrat-Bold';}
	.st8{font-size:45px;}
	.st9{letter-spacing:-1;}
	.st10{font-family:'Montserrat-Regular';}
	.st11{fill:#1F1F1F;}
</style>
<path id="SVGID_x5F_4_x5F_" class="st0" d="M1600.2,540h-8.7"/>
<text transform="matrix(-1 0 0 -1 1600.1992 540)" style="font-family:'ArialMT'; font-size:12px;"> </text>
<text transform="matrix(-1 0 0 -1 1596.8652 540)" style="font-family:'ArialMT'; font-size:12px;"> </text>
<path class="st1" d="M1556.6,540"/>
<g>
	<text transform="matrix(1 0 0 1 1544.7881 579.6338)" class="st5 st6" style="fill:#A5A9B4;">CORRETORA DE SEGUROS</text>
	<g>
		<text transform="matrix(1 0 0 1 1874.4976 531.1445)" class="st10" style="fill:#97AFD4; font-size:16.9309px;">®</text>
	</g>
	<polyline class="st2" points="1392.3,547.2 1392.3,515.1 1432.2,490.3 1472.1,515.2 1459,523.3 1432.2,506.6 1405.4,523.3 
		1405.4,533 1472.1,533 1472.1,565.3 1432.2,590.1 1392.2,565.2 1405.4,556.9 1432.2,573.7 1459,556.9 1459,547.2 	"/>
	<text transform="matrix(1 0 0 1 1491.8235 555.7852)" class="st2 st7 st8 st9">SAMPS </text>
	<text transform="matrix(1 0 0 1 1658.8235 555.7852)" class="st2 st10 st8 st9">SEGUROS</text>
</g>
<rect class="st3" width="1080" height="1080"/>
<g>
	<text transform="matrix(1 0 0 1 464.0645 595.219)" class="st4 st5 st6">CORRETORA DE SEGUROS</text>
	<polyline class="st4" points="311.6,562.8 311.6,530.7 351.5,505.9 391.4,530.8 378.3,538.9 351.5,522.2 324.7,538.9 324.7,548.6 
		391.4,548.6 391.4,580.9 351.5,605.7 311.5,580.8 324.7,572.5 351.5,589.3 378.3,572.5 378.3,562.8 	"/>
	<text transform="matrix(1 0 0 1 411.0996 571.3704)" class="st4 st7 st8 st9">SAMPS </text>
	<text transform="matrix(1 0 0 1 578.0996 571.3704)" class="st4 st10 st8 st9">SEGUROS</text>
</g>
<rect x="1100" y="1100" class="st11" width="1080" height="1080"/>
<g>
	<polyline class="st2" points="1573.7,1647.3 1573.7,1593.9 1640,1552.7 1706.3,1594.2 1684.6,1607.6 1640,1579.9 1595.5,1607.6 
		1595.5,1623.7 1706.3,1623.7 1706.3,1677.3 1640,1718.5 1573.7,1677.2 1595.5,1663.4 1640,1691.2 1684.6,1663.4 1684.6,1647.3 	"/>
	<text transform="matrix(1 0 0 1 1706.3433 1567.5341)" class="st2 st7" style="font-size:21px;">®</text>
</g>
<polyline class="st4" points="296.5,1683 296.5,1486.8 540,1335.5 783.5,1487.9 703.8,1537.1 540,1435.4 376.5,1537.1 376.5,1596.3 
	783.5,1596.3 783.5,1793.2 540,1944.5 296.5,1792.8 376.5,1742.1 540,1844.2 703.8,1742.1 703.8,1683 "/>
<g>
	<rect x="1100" y="2200" class="st11" width="1080" height="1080"/>
	<g>
		<g>
			<text transform="matrix(1 0 0 1 1859.2598 2718.1133)" class="st2 st10" style="font-size:20.0758px;">®</text>
		</g>
		<text transform="matrix(1 0 0 1 1405.5024 2747.3311)" class="st2 st7 st9" style="font-size:53.359px;">SAMPS </text>
		<text transform="matrix(1 0 0 1 1603.6025 2747.3311)" class="st2 st10 st9" style="font-size:53.359px;">SEGUROS</text>
	</g>
</g>
<rect y="2200" class="st3" width="1080" height="1080"/>
<g>
	<g>
		<text transform="matrix(1 0 0 1 759.2603 2718.1133)" class="st4 st10" style="font-size:20.0758px;">®</text>
	</g>
	<text transform="matrix(1 0 0 1 305.5029 2747.3311)" class="st4 st7 st9" style="font-size:53.359px;">SAMPS </text>
	<text transform="matrix(1 0 0 1 503.603 2747.3311)" class="st4 st10 st9" style="font-size:53.359px;">SEGUROS</text>
</g>
<rect x="2200" class="st4" width="1080" height="1080"/>
<rect x="3299.5" y="0.2" class="st2" width="1080" height="1080"/>
<rect x="3299.5" y="1100" class="st2" width="1080" height="1080"/>
<rect x="3299.5" y="2200" class="st2" width="1080" height="1080"/>
<path id="SVGID_x5F_4_x5F__1_" class="st0" d="M2700.2,540h-8.7"/>
<text transform="matrix(-1 0 0 -1 2700.1992 540)" style="font-family:'ArialMT'; font-size:12px;"> </text>
<text transform="matrix(-1 0 0 -1 2696.8652 540)" style="font-family:'ArialMT'; font-size:12px;"> </text>
<path class="st1" d="M2656.6,540"/>
<g>
	<text transform="matrix(1 0 0 1 2644.7881 579.6338)" class="st2 st5 st6">CORRETORA DE SEGUROS</text>
	<g>
		<text transform="matrix(1 0 0 1 2974.4976 531.1445)" class="st2 st10" style="font-size:16.9309px;">®</text>
	</g>
	<polyline class="st2" points="2492.3,547.2 2492.3,515.1 2532.2,490.3 2572.1,515.2 2559,523.3 2532.2,506.6 2505.4,523.3 
		2505.4,533 2572.1,533 2572.1,565.3 2532.2,590.1 2492.2,565.2 2505.4,556.9 2532.2,573.7 2559,556.9 2559,547.2 	"/>
	<text transform="matrix(1 0 0 1 2591.8235 555.7852)" class="st2 st7 st8 st9">SAMPS </text>
	<text transform="matrix(1 0 0 1 2758.8235 555.7852)" class="st2 st10 st8 st9">SEGUROS</text>
</g>
<rect x="2200" y="1100" class="st4" width="1080" height="1080"/>
<g>
	<polyline class="st2" points="2673.7,1647.3 2673.7,1593.9 2740,1552.7 2806.3,1594.2 2784.6,1607.6 2740,1579.9 2695.5,1607.6 
		2695.5,1623.7 2806.3,1623.7 2806.3,1677.3 2740,1718.5 2673.7,1677.2 2695.5,1663.4 2740,1691.2 2784.6,1663.4 2784.6,1647.3 	"/>
	<text transform="matrix(1 0 0 1 2806.3433 1567.5341)" class="st2 st7" style="font-size:21px;">®</text>
</g>
<rect x="2200" y="2200" class="st4" width="1080" height="1080"/>
<g>
	<g>
		<text transform="matrix(1 0 0 1 2966.8789 2718.1133)" class="st2 st10" style="font-size:20.0758px;">®</text>
	</g>
	<text transform="matrix(1 0 0 1 2513.1216 2747.3311)" class="st2 st7 st9" style="font-size:53.359px;">SAMPS </text>
	<text transform="matrix(1 0 0 1 2711.2217 2747.3311)" class="st2 st10 st9" style="font-size:53.359px;">SEGUROS</text>
</g>
<g>
	<text transform="matrix(1 0 0 1 3744.2793 579.6338)" class="st3 st5 st6">CORRETORA DE SEGUROS</text>
	<g>
		<text transform="matrix(1 0 0 1 4073.9888 531.1445)" class="st3 st10" style="font-size:16.9309px;">®</text>
	</g>
	<polyline class="st3" points="3591.8,547.2 3591.8,515.1 3631.7,490.3 3671.6,515.2 3658.5,523.3 3631.7,506.6 3604.9,523.3 
		3604.9,533 3671.6,533 3671.6,565.3 3631.7,590.1 3591.7,565.2 3604.9,556.9 3631.7,573.7 3658.5,556.9 3658.5,547.2 	"/>
	<text transform="matrix(1 0 0 1 3691.3149 555.7852)" class="st3 st7 st8 st9">SAMPS </text>
	<text transform="matrix(1 0 0 1 3858.3149 555.7852)" class="st3 st10 st8 st9">SEGUROS</text>
</g>
<g>
	<polyline class="st3" points="3773.2,1647.3 3773.2,1593.9 3839.5,1552.7 3905.8,1594.2 3884.1,1607.6 3839.5,1579.9 3795,1607.6 
		3795,1623.7 3905.8,1623.7 3905.8,1677.3 3839.5,1718.5 3773.2,1677.2 3795,1663.4 3839.5,1691.2 3884.1,1663.4 3884.1,1647.3 	"/>
	<text transform="matrix(1 0 0 1 3905.8345 1567.5341)" class="st3 st7" style="font-size:21px;">®</text>
</g>
<g>
	<g>
		<text transform="matrix(1 0 0 1 4058.7515 2718.1133)" class="st3 st10" style="font-size:20.0758px;">®</text>
	</g>
	<text transform="matrix(1 0 0 1 3604.9941 2747.3311)" class="st3 st7 st9" style="font-size:53.359px;">SAMPS </text>
	<text transform="matrix(1 0 0 1 3803.0942 2747.3311)" class="st3 st10 st9" style="font-size:53.359px;">SEGUROS</text>
</g>
<circle class="st11" cx="4943.4" cy="2729.1" r="533"/>
<g>
	<text transform="matrix(1 0 0 1 4779.9551 2796.7031)" class="st2 st5" style="font-size:25.7002px; letter-spacing:1;">CORRETORA DE SEGUROS</text>
	<g>
		<text transform="matrix(1 0 0 1 5344.8604 2713.624)" class="st2 st10" style="font-size:29.0085px;">®</text>
	</g>
	<polyline class="st2" points="4518.7,2741.1 4518.7,2686.1 4587.1,2643.6 4655.4,2686.3 4633,2700.2 4587.1,2671.6 4541.1,2700.2 
		4541.1,2716.8 4655.4,2716.8 4655.4,2772.1 4587.1,2814.6 4518.5,2772 4541.1,2757.8 4587.1,2786.5 4633,2757.8 4633,2741.1 	"/>
	<text transform="matrix(1 0 0 1 4689.208 2755.8418)" class="st2 st7" style="font-size:77.1005px; letter-spacing:-3;">SAMPS </text>
	<text transform="matrix(1 0 0 1 4975.3369 2755.8418)" class="st2 st10" style="font-size:77.1005px; letter-spacing:-3;">SEGUROS</text>
</g>
</svg>
